<svg xmlns="http://www.w3.org/2000/svg" viewBox="0 0 800 800" id="dentist-doing-checkup-of-patient"><defs><clipPath id="a"><path fill="#dbb1a9" d="m672.15 474.9-1.74-.85L555.93 418a45 45 0 0 0-7.14-2.72 41.53 41.53 0 0 0-26.59 1.42 46 46 0 0 0-55.2 73.59l90 72.87-2.62 3.38-5.72 7.46q-11.25 14.91-22 30.2l-5.39 7.65-5.33 7.7-2.67 3.84-2.63 3.88-5.29 7.73L495 650.6l-5.13 7.86-2.56 3.94c-.28 1.78-4.06.68 3.07 8.57a46.61 46.61 0 0 0 10.21 8.41c9.1 5.49 7.3 2 9 1.38l3.37-3.27 6.74-6.53 13.3-13.18 6.6-6.64 3.3-3.33 3.27-3.35 6.54-6.7 6.49-6.76q12.91-13.53 25.44-27.39l6.21-7c2-2.35 4.12-4.66 6.12-7l6.06-7.1 3-3.59 1.49-1.8 1.45-1.82a24.38 24.38 0 0 0 1.45-28.42l-1.27-1.88-22.95-35.58c2.2.43 4.4.86 6.61 1.26 5.19 1 10.41 1.89 15.62 2.82s10.45 1.8 15.69 2.62c3.82.65 7.64 1.28 11.54 1.68l-1.38 19.72c-1 15.09-1.91 30.18-2.62 45.31s-1.3 30.25-1.82 45.4l-.68 22.77-.33 11.37-.17 5.68c0 1-.06 1.89-.08 2.84a2.6 2.6 0 0 0 .66 1.5 5 5 0 0 0 .84.81 7.67 7.67 0 0 0 1.36.87l5.88 3a17.89 17.89 0 0 0 16.81-.37 4.5 4.5 0 0 0 1.45-1.25 3.56 3.56 0 0 0 .63-1.36l.52-2.79 1-5.58 2-11.16 4.1-22.33 4-22.35 2-11.17 1.93-11.18 3.85-22.36 3.79-22.36 3.78-22.37.89-5.6.39-2.8c.13-.94.26-1.87.37-2.81.47-3.75.85-7.5 1-11.29a24.56 24.56 0 0 0-13.68-23.04Z"></path></clipPath><clipPath id="b"><path fill="none" d="M503.81 305.82c-4.12.69-13.26 6.39-17.39 10.53l-.33.19c1.57-4.45 5.12-9.09 4.94-10.72-.38-3.39-3.76-4.89-4.89-.38s-10.07 7.78-10.53 12.41c-.43 4.29-1.22 11-1.62 15.95-1.85 1.39-3.7 2.78-5.56 4.15-5.88 4.31-11.82 8.51-17.79 12.51q-4.49 3-9 5.8c-3 1.85-6 3.62-9 5.23-1.34.72-2.67 1.41-4 2.05-.24-1.28-.45-2.65-.65-4.06-.43-3.1-.75-6.41-1-9.78s-.42-6.82-.54-10.3c-.22-7-.24-14.06-.12-21.17.07-3.56.18-7.13.31-10.68l.24-5.33.14-2.64.08-1.3v-.95a1.72 1.72 0 0 1 0-.26 24.73 24.73 0 0 0 .1-5.38 23.59 23.59 0 0 0-47 4.47l.18 1.86.08.82.07.74.16 1.47.34 2.89c.22 1.92.46 3.83.7 5.74q.74 5.71 1.59 11.43c1.11 7.62 2.36 15.24 3.87 22.94.76 3.85 1.58 7.72 2.5 11.63s1.95 7.88 3.19 12c.63 2.05 1.31 4.12 2.1 6.27s1.68 4.37 2.82 6.77c.57 1.19 1.21 2.44 2 3.77a39.83 39.83 0 0 0 2.88 4.31c.6.77 1.31 1.61 2.13 2.47a26.07 26.07 0 0 0 3 2.69 23.14 23.14 0 0 0 4.42 2.64q.67.3 1.38.57c.47.18 1 .34 1.47.49s1 .27 1.56.38l.75.14.71.11a21.86 21.86 0 0 0 4.73.09 23.42 23.42 0 0 0 3.44-.55 30.68 30.68 0 0 0 4.92-1.59 49.41 49.41 0 0 0 6.87-3.56c2-1.21 3.78-2.44 5.49-3.67s3.34-2.49 4.92-3.75c6.31-5 12-10.21 17.52-15.46s10.87-10.59 16.11-16q3.87-4 7.66-8a21.41 21.41 0 0 0 6.37-.85c4.41-1.39 14-7 14.67-11.28s.37-4.77.37-8.65c0-3-.71-7.76-7.14-7.52a26.32 26.32 0 0 1-3.7-.13 10.57 10.57 0 0 1 4.83-5.13c2.94-1.36 4.88 3.38 8.27-1.13 1.57-1.95-5.11-6.04-9.62-5.29Z" data-name="SVGID"></path></clipPath><clipPath id="c"><path fill="none" d="M620 230.24c.37-11.37-13.25-15.92-23.18-16.51-9.6-.57-19.43.52-29 1.54-7.6.82-15.09 1.77-22.54 2.79s-14.87 2.13-22.26 3.27c-3.71.57-7.4 1.15-11.1 1.75l-5.55.91-5.61.95a23.58 23.58 0 0 0-3 .74 21.78 21.78 0 1 0 13.33 41.48h.1l5.12-1.64 5.19-1.63q5.21-1.64 10.43-3.22c6.95-2.1 13.93-4.14 20.89-6.09q6.36-1.8 12.71-3.45-4.9 4.42-9.93 8.78a636.07 636.07 0 0 1-8.34 7.1c-2 1.65-4 3.32-6 4.95-4.37 1.19-18.95 5.57-20.94 11.71-1.37 4.22-1.88 19.58 1.5 27.45 2.42 5.65 8.13 4.85 11 5.37 0 0 7.35-6.46 8.88-13.52a15.92 15.92 0 0 1 4.49-7.73 14.5 14.5 0 0 0 4.19-9.29c10.5-6 24.82-10.42 35-16.9 9.69-6.15 20.38-12.75 28.25-21.2 4.06-4.33 6.19-12.09 6.37-17.61Z" data-name="SVGID"></path></clipPath><clipPath id="d"><path fill="none" d="M542.23 344.47a70.28 70.28 0 0 1 7.41-8.77c2.52-2.57 5.07-4.87 7.6-7 5.06-4.29 10.06-8 14.92-11.69a12.16 12.16 0 0 1 17.39 16.53l-.91 1.32c-3.49 5.14-6.9 10.19-9.69 15.06a67 67 0 0 0-3.57 7.06 26.12 26.12 0 0 0-1.85 6.15c-1.46 10.52-7.87 12.47-18.39 11s-21.17-5.8-19.71-16.32a19.2 19.2 0 0 1 3.29-8.38Z" data-name="SVGID"></path></clipPath><clipPath id="e"><path fill="#f68e6c" d="M520.14 405.23c-.24.39-.51.74-.78 1.1-.14.17-.26.34-.41.52l-.45.55c-.3.35-.6.71-.91 1.05s-.65.72-1 1.08c-1.31 1.41-2.75 2.82-4.23 4.21-.74.7-1.51 1.4-2.29 2.07s-1.57 1.37-2.38 2-1.63 1.34-2.46 2l-2.5 2c-6.68 5.38-13.46 11-20.42 16.5q-5.22 4.17-10.59 8.32c-3.58 2.77-7.22 5.52-11 8.23s-7.63 5.4-11.71 8q-3.06 2-6.34 3.91c-.53.33-1.1.65-1.67 1l-1.7.95c-.57.32-1.18.63-1.77.95s-1.18.63-1.81.94l-1.91.92c-.32.15-.63.31-1 .46l-1 .44a76.68 76.68 0 0 1-4.13 1.61 68.15 68.15 0 0 1-8.43 2.41 82.11 82.11 0 0 1-16.53 1.86 114.14 114.14 0 0 1-15.19-.85c-4.82-.6-9.42-1.39-13.86-2.22-8.9-1.66-17.21-3.57-25.39-5a161.21 161.21 0 0 0-24.22-2.62h-.19a10.25 10.25 0 0 1-1.73-20.31 162 162 0 0 1 28-2.72c9.2-.15 18.18.16 26.62.28 4.22 0 8.3 0 12.18-.21a85.33 85.33 0 0 0 10.93-1.21 45 45 0 0 0 9.16-2.69 36.22 36.22 0 0 0 3.9-1.92c.61-.35 1.22-.71 1.8-1.1l1.89-1.23c.32-.21.67-.47 1-.7s.68-.47 1-.73l1.06-.79c.36-.26.71-.51 1.08-.8q2.18-1.67 4.4-3.53c3-2.47 6-5.14 9-7.9 6-5.55 12.07-11.44 18.11-17.47l18.42-18.48 2.37-2.35c.8-.79 1.6-1.57 2.42-2.34s1.67-1.54 2.53-2.29 1.74-1.49 2.64-2.21c1.83-1.45 3.71-2.86 5.76-4.21.51-.33 1-.67 1.56-1s1.09-.65 1.64-1l.84-.46c.27-.16.59-.32.88-.47.6-.31 1.2-.61 1.82-.89A23 23 0 0 1 522 402.36Z" data-name="SVGID"></path></clipPath><clipPath id="f"><path fill="#ccdbf0" d="M459.44 394.56s21.2-24.69 33.47-28.58c15.41-4.89 30.52.38 34.25 10s6 18.62-1.16 31.78c-11.78 21.68-73.33 63.92-73.33 63.92s5.27 10.15-2.63 14.66-16.22 6.47-18.8 5.64c-10.53-3.38-29.7-52.26-27.07-58.28s13.16-12 18.05-11.66 6 3.76 6 3.76Z" data-name="SVGID"></path></clipPath></defs><g style="isolation:isolate"><g data-name="Layer 1"><circle cx="449.53" cy="349.17" r="277.58" fill="#ebcbc6"></circle><path fill="#fff" d="M767.39 401H654.21a7.52 7.52 0 0 1 0-15h113.18a7.52 7.52 0 0 1 0 15Z"></path><path fill="#fff" d="M668.88 393.43h69.19v154.54h-69.19z"></path><path fill="#fff" d="M672.26 549.1a3.77 3.77 0 0 1-3.76-3.76V393.43a3.76 3.76 0 0 1 7.52 0v151.91a3.76 3.76 0 0 1-3.76 3.76Z"></path><path fill="#ebcbc6" d="M681.85 458.48a.94.94 0 0 1-.94-.94v-56.78a.94.94 0 1 1 1.88 0v56.78a.94.94 0 0 1-.94.94Z"></path><path fill="#ebcbc6" d="M707 401.7h-28.2a.94.94 0 0 1 0-1.88H707a.94.94 0 1 1 0 1.88ZM712.68 451.71h-30.83a.94.94 0 0 1 0-1.88h30.83a.94.94 0 1 1 0 1.88Z"></path><path fill="#f69070" d="M636.07 703.23a30.34 30.34 0 0 1-2.92-8.74 48.66 48.66 0 0 1-.74-7.86 69.66 69.66 0 0 1 .22-7.41c.09-1.22.22-2.42.36-3.63.07-.6.16-1.21.25-1.82a16.88 16.88 0 0 1 .39-2 9.38 9.38 0 0 1 18.42 3.28l-.05.95c0 .26-.15.8-.24 1.22s-.21.91-.31 1.38c-.19.92-.37 1.86-.52 2.8a51.84 51.84 0 0 0-.66 5.54 31.86 31.86 0 0 0 0 5.08 16 16 0 0 0 .69 3.68l.33.94a8.31 8.31 0 0 1-15.19 6.63ZM480.53 698.49a37.65 37.65 0 0 1-.27-4.51 34.17 34.17 0 0 1 .27-4.52 36.82 36.82 0 0 1 1-4.41c.21-.72.4-1.44.63-2.15l.71-2.13a60.43 60.43 0 0 1 3.56-8.1 75.22 75.22 0 0 1 4.51-7.45l.1-.14a9.4 9.4 0 0 1 15.54 10.58l-.15.21c-.63.88-1.18 1.81-1.71 2.73s-1.06 1.85-1.56 2.78a25.92 25.92 0 0 0-2.47 5.75 17.73 17.73 0 0 0-.54 3c-.05.51-.06 1-.07 1.53a1.63 1.63 0 0 0 .48.87 11.42 11.42 0 0 0 1.07.95c.78.64 1.3 1.17 1.1 1.6a4.3 4.3 0 0 1-.89 1.26 9.87 9.87 0 0 1-1.7 1.26 17.46 17.46 0 0 1-2.94 1.4l-9.91 3.67a5 5 0 0 1-6.48-3 5.73 5.73 0 0 1-.28-1.18Z"></path><path fill="#857782" d="M631.63 683.48s-5.57 9.93-3 25.42c.17-.19 56.94-.27 62.63-.19.26-9.19-37.64-19.48-38.64-19.72-14.73 3.58-20.99-5.51-20.99-5.51Z"></path><path fill="#b9b5c6" d="M512.85 513.94h17.38v123.34h-17.38z"></path><rect width="157.96" height="52.91" x="429.02" y="462.73" fill="#ef4050" rx="25.1" transform="rotate(180 508 489.185)"></rect><path fill="#b9b5c6" d="M440.11 692.32a3.71 3.71 0 0 1-3.71-3.71v-18.17l1.33-1.11c1.66-1.4 41.09-34.14 81.5-35.77a3.71 3.71 0 0 1 .3 7.42c-33.91 1.37-68.58 27.34-75.71 33v14.66a3.71 3.71 0 0 1-3.71 3.68Z"></path><path fill="#b9b5c6" d="M598.14 692.32a3.71 3.71 0 0 1-3.71-3.71V674c-7.13-5.63-41.8-31.6-75.7-33a3.71 3.71 0 1 1 .3-7.42c40.4 1.63 79.84 34.37 81.5 35.77l1.32 1.11v18.17a3.71 3.71 0 0 1-3.71 3.69Z"></path><path fill="#b9b5c6" d="M544.43 692.32a3.71 3.71 0 0 1-3.71-3.71v-16.09c-.59-3-6.15-28.94-22.44-31.59a3.71 3.71 0 0 1 1.2-7.32c22.42 3.65 28.37 36.53 28.61 37.93v17.07a3.71 3.71 0 0 1-3.66 3.71Z"></path><circle cx="595.7" cy="697.76" r="11.59" fill="#b9b5c6"></circle><circle cx="440.11" cy="697.76" r="11.59" fill="#b9b5c6"></circle><path fill="#dbb1a9" d="m672.15 474.9-1.74-.85L555.93 418a45 45 0 0 0-7.14-2.72 41.53 41.53 0 0 0-26.59 1.42 46 46 0 0 0-55.2 73.59l90 72.87-2.62 3.38-5.72 7.46q-11.25 14.91-22 30.2l-5.39 7.65-5.33 7.7-2.67 3.84-2.63 3.88-5.29 7.73L495 650.6l-5.13 7.86-2.56 3.94c-.28 1.78-4.06.68 3.07 8.57a46.61 46.61 0 0 0 10.21 8.41c9.1 5.49 7.3 2 9 1.38l3.37-3.27 6.74-6.53 13.3-13.18 6.6-6.64 3.3-3.33 3.27-3.35 6.54-6.7 6.49-6.76q12.91-13.53 25.44-27.39l6.21-7c2-2.35 4.12-4.66 6.12-7l6.06-7.1 3-3.59 1.49-1.8 1.45-1.82a24.38 24.38 0 0 0 1.45-28.42l-1.27-1.88-22.95-35.58c2.2.43 4.4.86 6.61 1.26 5.19 1 10.41 1.89 15.62 2.82s10.45 1.8 15.69 2.62c3.82.65 7.64 1.28 11.54 1.68l-1.38 19.72c-1 15.09-1.91 30.18-2.62 45.31s-1.3 30.25-1.82 45.4l-.68 22.77-.33 11.37-.17 5.68c0 1-.06 1.89-.08 2.84a2.6 2.6 0 0 0 .66 1.5 5 5 0 0 0 .84.81 7.67 7.67 0 0 0 1.36.87l5.88 3a17.89 17.89 0 0 0 16.81-.37 4.5 4.5 0 0 0 1.45-1.25 3.56 3.56 0 0 0 .63-1.36l.52-2.79 1-5.58 2-11.16 4.1-22.33 4-22.35 2-11.17 1.93-11.18 3.85-22.36 3.79-22.36 3.78-22.37.89-5.6.39-2.8c.13-.94.26-1.87.37-2.81.47-3.75.85-7.5 1-11.29a24.56 24.56 0 0 0-13.68-23.04Z" data-name="SVGID"></path><g clip-path="url(#a)"><path d="M668.88 644.22c-5.27 29.71-30.83 30.84-33.84 10.91-1.17-7.76-7.15-73.7-7.15-73.7l-12.4 83.85 6.39 19.55 41.73 3.76ZM595.56 597.6c-15.79 16.92-73.32 69.56-90.24 63.92s-6.77-38-6.77-38l-28.2 51.52L508 688.59 549.68 663ZM540.66 485.93c-6.39 35.34 9 77.08 9 77.08l-37.22-3s-17.11-33.82-13.82-37.59 42.04-36.49 42.04-36.49ZM628.27 519.39c-16.54-4.89-53.39-30.18-53.39-30.18l20.17 32Z" style="mix-blend-mode:multiply" fill="#aec5e7" opacity=".33"></path></g><path fill="#f68e6c" d="M620 230.24c.37-11.37-13.25-15.92-23.18-16.51-9.6-.57-19.43.52-29 1.54-7.6.82-15.09 1.77-22.54 2.79s-14.87 2.13-22.26 3.27c-3.71.57-7.4 1.15-11.1 1.75l-5.55.91-5.61.95a23.58 23.58 0 0 0-3 .74 21.78 21.78 0 1 0 13.33 41.48h.1l5.12-1.64 5.19-1.63q5.21-1.64 10.43-3.22c6.95-2.1 13.93-4.14 20.89-6.09q6.36-1.8 12.71-3.45-4.9 4.42-9.93 8.78a636.07 636.07 0 0 1-8.34 7.1c-2 1.65-4 3.32-6 4.95-4.37 1.19-18.95 5.57-20.94 11.71-1.37 4.22-1.88 19.58 1.5 27.45 2.42 5.65 8.13 4.85 11 5.37 0 0 7.35-6.46 8.88-13.52a15.92 15.92 0 0 1 4.49-7.73 14.5 14.5 0 0 0 4.19-9.29c10.5-6 24.82-10.42 35-16.9 9.69-6.15 20.38-12.75 28.25-21.2 4.06-4.33 6.19-12.09 6.37-17.61Z"></path><path fill="#fff" d="M477.81 253.16c3.33 14.69 24.39 26.29 37 21.21s37.68-17.05 37.68-17.05 3.82-45.93-15.89-50c-18 4.14-42.45 8.89-51.8 20.57-8.74 10.91-9.07 16.11-6.99 25.27Z"></path><path d="M552.25 238.11c-3.69 7.55-11.59 15.07-18 17.32a93.91 93.91 0 0 1-9.78 3l5.08 9.55 23.5-10.68v-9.58Z" style="mix-blend-mode:multiply" fill="#aec5e7" opacity=".61"></path><path fill="#f2e1da" d="M440.67 230.58C412 245.35 387.34 261 386.35 302.7S418 452.11 418 452.11l80-35.2s33-51.87 37.24-98.1c3.26-35.74-7.66-90.94-39.64-94.9-21.6-2.68-54.93 6.67-54.93 6.67Z"></path><path fill="#f68e6c" d="M452.4 226.12c-10.33 4.24-19.85 9.6-14.67 18.9 7 12.67 32 11.26 44.65 25.45 1.95 2.19 12.06 11.63 12.5 9a67.86 67.86 0 0 0-1.22-27.07c-2.76-10.42-9-22.94-11.28-24.44-7.81-5.18-29.98-1.84-29.98-1.84Z"></path><path fill="#f68e6c" d="M451.38 228.77a21.25 21.25 0 0 0 2.11-6 51.61 51.61 0 0 0 1-8.15 89.45 89.45 0 0 0-1-17.87 11.41 11.41 0 0 1 21.85-6l.32.81c1.43 3.53 2.7 7.13 3.8 10.83a103.38 103.38 0 0 1 2.73 11.48 76.87 76.87 0 0 1 1.24 12.6 50.17 50.17 0 0 1-1.95 14.95l-.15.53a16.53 16.53 0 1 1-31.72-9.31 17.15 17.15 0 0 1 1.77-3.87Z"></path><path d="M475.61 236.26c-10.9-1.88-14.66-4.89-16.54-5.27-3.63-.72-6.4-4.88-6-6.39a50.87 50.87 0 0 0 1.5-8.65v-7.14l15.43 8.27 1.51 10.53Z" style="mix-blend-mode:multiply" fill="#aec5e7" opacity=".24"></path><path fill="#f68e6c" d="M507.12 198.17c-5.94 16.28-16.75 39.22-34.43 36.21-8.56-1.46-15.42-15-18.11-30.06-.42-2.37-7-4-7.17-6.42-.69-8 6.1-16.62 8.27-22.93 7-20.29 22.66-27.28 36.46-22.54a29.9 29.9 0 0 1 18.91 21.79c1.43 7.18-1 15.91-3.93 23.95Z"></path><path fill="#3d406e" d="M467.43 175.34c4.63-5.78 17.33 2 28.85 3.53s15.51.27 18.53-.89a18 18 0 0 0 9.4-7.9c15.42-25.8-23.69-16.38-30.82-20.25-14.93-8.11-37-5.93-42.23 4.28s-15.31 32.07-4.56 55c3.91 10.22 6.17 4.58 6.17 4.58s2.25-7.15 1.12-12c-.42-1.85-3.28-1.88-3.76-3.76-1.57-6.23.06-16 3.76-15.79 4.82.22 3.57 6.55 6.4 6.77s4.13-9.81 7.14-13.57Z"></path><path fill="#cf7455" d="M476 235.88a16.28 16.28 0 0 1-3.58-.39c-9.6-2.11-16.18-13.22-19.58-33-3.1-1.51-4.91-5.16-4.76-9.7a26.48 26.48 0 0 1 1.69-8.3l.05-.11c1-1.88 2.27-3 3.73-3.28a3.62 3.62 0 0 1 2.92.67 1.14 1.14 0 1 1-1.44 1.77 1.34 1.34 0 0 0-1-.2c-.74.15-1.48.86-2.14 2.07a24.78 24.78 0 0 0-1.5 7.45c-.12 3.83 1.37 6.81 3.9 7.76l.62.23.11.65c3.15 18.9 9.35 29.89 17.92 31.78 12.31 2.72 22.19-10.94 25.7-18.54l1-2.24c4.15-8.89 9.31-19.95 10.22-32.52a1.14 1.14 0 0 1 2.28.16c-.95 13-6.43 24.74-10.43 33.32-.36.77-.7 1.52-1 2.24-4.71 10.21-14.16 20.18-24.71 20.18Z"></path><path fill="#fff" d="M393.71 734.07a21.42 21.42 0 0 1-19.46-30.32l28.17-61.59A21.41 21.41 0 1 1 441.36 660l-28.17 61.59a21.41 21.41 0 0 1-19.48 12.48Z"></path><path fill="#7ea3d6" d="m484.91 311.48 52.84 9.13a.63.63 0 0 1-.19 1.25l-53.2-6.66a1.88 1.88 0 0 1 .47-3.73Z"></path><path fill="#f68e6c" d="M463.51 341.51q-6.4 4.61-12.87 8.95-4.49 3-9 5.8c-3 1.85-6 3.62-9 5.23-1.34.72-2.67 1.41-4 2.05-.24-1.28-.45-2.65-.65-4.06-.43-3.1-.75-6.41-1-9.78s-.42-6.82-.54-10.3c-.22-7-.24-14.06-.12-21.17.07-3.56.18-7.13.31-10.68l.24-5.33.14-2.64.08-1.3v-.95a1.72 1.72 0 0 1 0-.26 24.73 24.73 0 0 0 .1-5.38 23.59 23.59 0 0 0-47 4.47l.18 1.86.08.82.07.74.16 1.47.34 2.89c.22 1.92.46 3.83.7 5.74q.74 5.71 1.59 11.43c1.11 7.62 2.36 15.24 3.87 22.94.76 3.85 1.58 7.72 2.5 11.63s1.95 7.88 3.19 12c.63 2.05 1.31 4.12 2.1 6.27s1.68 4.37 2.82 6.77c.57 1.19 1.21 2.44 2 3.77a39.83 39.83 0 0 0 2.88 4.31c.6.77 1.31 1.61 2.13 2.47a26.07 26.07 0 0 0 3 2.69 23.14 23.14 0 0 0 4.42 2.64q.67.3 1.38.57c.47.18 1 .34 1.47.49s1 .27 1.56.38l.75.14.71.11a21.86 21.86 0 0 0 4.73.09 23.42 23.42 0 0 0 3.44-.55 30.68 30.68 0 0 0 4.92-1.59 49.41 49.41 0 0 0 6.87-3.56c2-1.21 3.78-2.44 5.49-3.67s3.34-2.49 4.92-3.75c6.31-5 12-10.21 17.52-15.46 3.58-3.39 7.06-6.82 10.5-10.29-5.75-4.42-10.13-11.25-12.98-18Z"></path><path fill="#7ea3d6" d="M503.81 305.82c-4.12.69-13.26 6.39-17.39 10.53l-.33.19c1.57-4.45 5.12-9.09 4.94-10.72-.38-3.39-3.76-4.89-4.89-.38s-10.07 7.78-10.53 12.41c-.43 4.29-1.22 11-1.62 15.95-1.85 1.39-3.7 2.78-5.56 4.15-1.63 1.2-4.71 3.16-6.35 4.34 2.85 6.75 9.5 16.3 15.41 20.68 1.88-1.89 9.9-14.52 12.43-17.2a21.41 21.41 0 0 0 6.37-.85c4.41-1.39 14-7 14.67-11.28s.37-4.77.37-8.65c0-3-.71-7.76-7.14-7.52a26.32 26.32 0 0 1-3.7-.13 10.57 10.57 0 0 1 4.83-5.13c2.94-1.36 4.88 3.38 8.27-1.13 1.41-1.92-5.27-6.01-9.78-5.26Z"></path><path d="M484.64 354.7c-21.06 14.66-45.13 36.1-63.55 33.84-18.8-3-27-24-26.09-24.42 2.93-4.93 28-9.42 34-6.79L427.11 343l-45.5 4.89 18.8 59.79 28.95-7.15 39.86-25.19Z" style="mix-blend-mode:multiply" fill="#aec5e7" clip-path="url(#b)" opacity=".24"></path><path fill="#fff" d="M398.65 265.67c-14.83 2.63-24.43 18.78-25.31 32.39-.83 12.73 1.52 53.61 1.52 53.61s26.08 17.77 60.14-5.62c-1.17-26.26-.2-62.28-11.42-72.18-10.5-9.27-15.69-9.87-24.93-8.2Z"></path><path d="M381.52 276.73c-7.43 18.94 2 61 5 67.44 4.51 7.15 8.47 12.46 17.58 13.75-16-1.18-17.75-1.81-17.75-1.81l-11.49-4.79-1.69-29v-18.64l2-13.73 3.81-9.47Z" style="mix-blend-mode:multiply" fill="#aec5e7" opacity=".61"></path><path fill="#fff" d="M473.13 214.14a1.17 1.17 0 0 0-1.47 1.5c1.39 4.7 4.57 6.73 8.83 7.47 3.1.54 7.39-1.63 8.43-3.26.56-.87.13-2-.83-2a16.73 16.73 0 0 1-3.95-.14 61.26 61.26 0 0 1-11.01-3.57Z"></path><path fill="#7ea3d6" d="m523.63 275.1 14.42 43.22a.82.82 0 0 1-1.55.56l-16.41-42.51a1.88 1.88 0 0 1 3.51-1.37Z"></path><path fill="#ab97a6" d="M399.26 358.39c-17 0-24.47-5.87-24.82-6.16a.93.93 0 0 1-.35-.67l-1.2-20.82c-.14-1.21-3.63-31.08 3.51-47.48a32.84 32.84 0 0 1 20.54-17.84c6.67-2.11 13-1.92 16.95.5a.94.94 0 1 1-1 1.6c-3.43-2.1-9.34-2.22-15.41-.31-8.75 2.76-16 9-19.38 16.81-6.93 15.93-3.39 46.25-3.35 46.55l1.19 20.43c1.82 1.25 11.46 7 31 5.13 19.76-1.91 25.94-9.23 26.91-10.54l-.46-15.17c-4.05 2.42-16.18 9-29.38 9.61a.93.93 0 0 1-1-.89.94.94 0 0 1 .9-1c15.35-.74 29.7-10.09 29.84-10.19a1 1 0 0 1 1-.05.94.94 0 0 1 .51.81l.51 17.11a.9.9 0 0 1-.12.5c-.23.38-5.77 9.46-28.49 11.66-2.85.29-5.47.41-7.9.41ZM433.08 305.09a1 1 0 0 1-.94-.85c-1.42-14.47-4.2-24.87-7.44-27.81A.94.94 0 0 1 426 275c5 4.51 7.17 20.11 8 29a.94.94 0 0 1-.84 1ZM482.57 288.52a.94.94 0 0 1-.72-.33c-7.15-8.45-25.28-16-36.11-20.56-1.51-.63-2.91-1.21-4.15-1.74-11.12-4.77-13.36-10.49-13.36-18.16a.94.94 0 1 1 1.88 0c0 7.09 2 12 12.22 16.43l4.13 1.74c11.7 4.89 29.38 12.28 36.83 21.08a.94.94 0 0 1-.12 1.32.91.91 0 0 1-.6.22ZM495.73 298.67a.94.94 0 0 1 0-1.88c1.21 0 9.28-2.53 14.5-4.26.19-4.4 1.13-30.21-2.23-39.6a.94.94 0 0 1 1.77-.63c3.78 10.58 2.37 39.73 2.31 41a.92.92 0 0 1-.64.84c-2.28.74-13.78 4.53-15.71 4.53ZM536.71 231.37a.94.94 0 0 1-.92-.76c-3.22-16.46-11.41-19.65-11.49-19.68a.94.94 0 0 1-.61-1 .93.93 0 0 1 .74-.85l12.09-2.56a1 1 0 0 1 1.11.73.93.93 0 0 1-.72 1.11l-9.7 2.05c3 2.15 8 7.48 10.42 19.79a.93.93 0 0 1-.74 1.1ZM538.55 264.82a.94.94 0 0 1-.38-1.8l13.83-6.13c0-4 .06-27.25-4-36.43a.94.94 0 1 1 1.72-.76c4.61 10.39 4.18 36.7 4.16 37.82a.94.94 0 0 1-.56.84l-14.33 6.38a1 1 0 0 1-.44.08ZM561.9 629.18a.92.92 0 0 1-.62-.23 1 1 0 0 1-.08-1.33c.37-.42 37-41.85 45.15-50.41 9.15-9.57 5.2-25.88 5-26.57-.8-3.2-24-40-39.36-64a.94.94 0 1 1 1.58-1c3.93 6.13 38.47 60 39.6 64.57.18.73 4.36 18-5.49 28.33-8.17 8.54-44.73 49.94-45.1 50.36a1 1 0 0 1-.68.28Z"></path><path fill="#ab97a6" d="M566 569a.94.94 0 0 1-.59-.2l-7.52-6a1 1 0 0 1-.33-.93.94.94 0 0 1 .69-.71l7.52-1.88a.94.94 0 0 1 .46 1.82l-5.68 1.42 6 4.83A.94.94 0 0 1 566 569ZM508.51 683h-.08c-.18 0-18.74-1.74-23.38-17.21a.94.94 0 1 1 1.8-.54c3.9 13 18.6 15.48 21.31 15.83l32-32.76a.94.94 0 1 1 1.34 1.31l-32.34 33.09a.93.93 0 0 1-.65.28Z"></path><path fill="#ab97a6" d="M517.16 618.28a.93.93 0 0 1-.57-.19 1 1 0 0 1-.18-1.32l41.36-54.15a.95.95 0 0 1 1.5 1.15l-41.36 54.14a1 1 0 0 1-.75.37ZM636.35 519a.92.92 0 0 1-.61-.22 1 1 0 0 1-.27-1l3-8.27a.93.93 0 0 1 1.2-.56 1 1 0 0 1 .57 1.2l-2.17 6 13.26-7.15a.94.94 0 0 1 .89 1.66l-15.42 8.24a.88.88 0 0 1-.45.1ZM684.11 514.88H684a.94.94 0 0 1-.8-1.06c0-.14 1.86-13.85 1.5-17.83-.39-4.28-4.66-15.11-12.77-20.75-8.48-5.9-81.09-39.44-81.82-39.78a.93.93 0 0 1-.46-1.24.94.94 0 0 1 1.25-.46c3 1.38 73.49 33.94 82.11 39.94s13.13 17.39 13.56 22.12c.38 4.19-1.43 17.68-1.51 18.25a.94.94 0 0 1-.95.81ZM644.18 678.76c-12.31 0-16.69-7.17-16.91-7.55a1.06 1.06 0 0 1-.13-.52l4.52-95.13a.94.94 0 1 1 1.87.09L629 670.48c1 1.5 7.53 9.63 25.12 5a.94.94 0 0 1 .48 1.82 40.75 40.75 0 0 1-10.42 1.46ZM661.92 642h-.22a.94.94 0 0 1-.69-1.13c2.22-9.26 13.78-77.09 13.9-77.77a.94.94 0 0 1 1.85.31c-.47 2.8-11.69 68.57-13.92 77.9a1 1 0 0 1-.92.69Z"></path><path fill="#ab97a6" d="M634.47 534.81a.92.92 0 0 1-.42-.1 1 1 0 0 1-.44-1.21c.27-.92 1.16-9.08 1.72-14.62l-28.06-4a.94.94 0 0 1 .26-1.86l29 4.13a1 1 0 0 1 .8 1c-.69 6.94-1.6 15.37-2 16.12a.93.93 0 0 1-.86.54Zm-.84-1.36Z"></path><path fill="#7ea3d6" d="M533.35 274.5c-5.53 2.12-11.74 5.28-13 9.13-1.37 4.22-1.88 19.58 1.5 27.45 2.42 5.65 8.13 4.85 11 5.37 0 0 7.35-6.46 8.88-13.52a15.92 15.92 0 0 1 4.49-7.73 14.26 14.26 0 0 0 2.81-4c-6.03-4.66-12.03-10.1-15.68-16.7Z"></path><path fill="#cf7455" d="M554.06 262.6a1.14 1.14 0 0 1-.73-2l32.21-26.79c4.23-2.69 10.93-4.57 11.22-4.65a1.14 1.14 0 0 1 .61 2.2c-.07 0-6.59 1.85-10.54 4.34l-32 26.65a1.12 1.12 0 0 1-.77.25Z"></path><path d="M548.56 296c1.88-11.28 0-15.41 0-15.41s45.49-22.94 53.77-29.71 18-20.3 18-20.3l-4.88 24.44-20.31 25.57Z" style="mix-blend-mode:multiply" fill="#aec5e7" clip-path="url(#c)" opacity=".24"></path><path fill="#cf7455" d="M419.54 399.58c-8.46 0-15.08-4.07-18.94-12a196.71 196.71 0 0 1-9.9-23.95 1.14 1.14 0 0 1 2.18-.69 194 194 0 0 0 9.77 23.64c7.38 15.09 23.43 10.46 30 7.77s21.48-15.2 40.22-33.61a1.14 1.14 0 0 1 1.61 0 1.15 1.15 0 0 1 0 1.62c-7.1 7-31 30-40.95 34.09a37.15 37.15 0 0 1-13.99 3.13Z"></path><path fill="#cf7455" d="M429 365.24a1.16 1.16 0 0 1-1-.51 1.14 1.14 0 0 1 .33-1.58l33.97-22.35a1.14 1.14 0 1 1 1.25 1.91l-33.94 22.34a1.1 1.1 0 0 1-.61.19Z"></path><path fill="#4b75ba" d="M499.67 319.74a1.12 1.12 0 0 1-.6-.17 1.14 1.14 0 0 1-.36-1.57c2.44-3.91 5.06-7.47 7.68-7.17a13.09 13.09 0 0 1 2.87.78 8.64 8.64 0 0 0 1.22.39l.2-.12a11.18 11.18 0 0 0 1.93-1.34 6.36 6.36 0 0 0-3.65-2.79 1.15 1.15 0 0 1 .64-2.2c3.23.95 5.66 3.84 5.3 5.45-.24 1.1-1.53 1.94-3 2.84l-.3.18c-.88.53-1.89.17-3.07-.26a11.43 11.43 0 0 0-2.36-.66c-.57-.05-2.05.63-5.48 6.11a1.13 1.13 0 0 1-1.02.53Z"></path><circle cx="544.43" cy="697.76" r="11.59" fill="#b9b5c6"></circle><path fill="#857782" d="M480.1 683.48s-5.57 9.93-3 25.42c.17-.19 56.94-.27 62.63-.19.26-9.19-37.64-19.48-38.64-19.72-14.73 3.58-20.99-5.51-20.99-5.51Z"></path><path fill="#4b75ba" d="m477.34 364.2-.42-.24c-9.64-5.62-14.55-20.21-15.08-21.85l-.27-.83 11.43-7.54c.43-3.95 2.06-17.72 4-20a30.69 30.69 0 0 1 3.32-3.12c1.73-1.5 4.11-3.55 4.44-4.67a1.14 1.14 0 0 1 2.19.63c-.51 1.78-2.76 3.71-5.14 5.77a29.22 29.22 0 0 0-3.06 2.85c-1 1.24-2.59 10.8-3.5 19.32l-.05.53-10.9 7.17c1.13 3.18 5.61 14.58 13.22 19.43 1.32-1.14 4.18-5.85 6-8.77 2.93-4.83 4.65-7.59 5.92-8.23l.24-.12h.27c2.11 0 16.76-4.51 19.36-9.7a1.14 1.14 0 0 1 2 1c-3 6-17.59 10.57-21 10.93-.91.77-3.18 4.51-4.86 7.27-3.92 6.45-5.95 9.53-7.61 10Z"></path><path fill="#7ea3d6" d="M548.44 292.3a27.34 27.34 0 0 0 2-6.41l11.32-3s-7.19-20.29-12.08-21.8c-1.88 1.13-8.27 10.91-8.27 10.91s-7.52 1.84-11.84 4.11 18.87 16.19 18.87 16.19Z"></path><path fill="#4b75ba" d="M531.63 316.9c-3.52 0-7.8-1.82-8.42-2.09a1.14 1.14 0 1 1 .92-2.09c2.72 1.19 7.67 2.65 9.4 1.51 2.16-1.43 5.25-7 6.3-9.09.29-.8 3-8 6.18-11.4 2.86-3.07 3.28-7.89 3.29-7.94l.06-.8 11.22-3a1.14 1.14 0 0 1 .59 2.21l-9.7 2.59a16.57 16.57 0 0 1-3.79 8.5c-3 3.19-5.7 10.61-5.73 10.68l-.05.12c-.4.81-4 8-7.11 10a5.71 5.71 0 0 1-3.16.8ZM522.13 282a1.18 1.18 0 0 1-.48-.1 1.14 1.14 0 0 1-.55-1.52c2.19-4.71 16.54-8.63 19.62-9.42 1.17-1.67 6.09-8.65 8.16-10.71a1.12 1.12 0 0 1 1.41-.16c3.18 2 7.2 9.68 7.65 10.55a1.14 1.14 0 0 1-.5 1.53 1.13 1.13 0 0 1-1.53-.49c-1-2-3.89-7-6.1-9.08-2.51 2.9-7.41 9.93-7.46 10a1.15 1.15 0 0 1-.66.46c-6.42 1.6-17.12 5.26-18.52 8.27a1.15 1.15 0 0 1-1.04.67Z"></path><path fill="#f69070" d="M92.69 547a23.54 23.54 0 0 1-4.34 4.4 38.18 38.18 0 0 1-4.2 2.86 66.47 66.47 0 0 1-8.13 4c-2.68 1.12-5.34 2.08-8 3-1.33.44-2.67.85-4 1.25l-2 .57-1 .26-1.14.23a9.4 9.4 0 0 1-4.27-18.28l.49-.14.77-.19.86-.18 1.75-.36c1.18-.25 2.35-.52 3.52-.81 2.32-.58 4.62-1.23 6.81-2a49.5 49.5 0 0 0 6.09-2.44 23.59 23.59 0 0 0 2.37-1.34 9.45 9.45 0 0 0 1.3-1l1.17-1A8.27 8.27 0 0 1 92.69 547Z"></path><path fill="#3d406e" d="m411.73 535.59-201.41-23.46 10.83-2q-8.28 3.71-16.69 7.17c-5.6 2.32-11.22 4.57-16.86 6.8q-16.92 6.66-34 12.88c-11.4 4.19-22.88 8.19-34.38 12.17L101.88 555l-8.67 2.87-4.34 1.43a4.09 4.09 0 0 1-1.12.28 3.2 3.2 0 0 1-1.41-.35 9.57 9.57 0 0 1-1.82-1.26l-.25-.23-.28-.27-.57-.55-.62-.68c-.21-.24-.46-.55-.68-.82a24.55 24.55 0 0 1-5.38-11.8c-.06-.35-.13-.73-.17-1.06l-.11-.91V540.13a9.26 9.26 0 0 1 .25-2.2 3.05 3.05 0 0 1 .66-1.3 4.27 4.27 0 0 1 .94-.65l3.93-2.34 7.76-4.72 15.75-9.23c10.54-6.06 21.1-12.1 31.73-18s21.31-11.64 32.06-17.24c5.38-2.79 10.77-5.56 16.19-8.26s10.87-5.35 16.36-7.9a21.62 21.62 0 0 1 9-2h1.78l202.84-.29a34.93 34.93 0 0 1 .12 69.86 37 37 0 0 1-4.1-.27Z"></path><path fill="#7ea3d6" d="M535 354c-22.41-3.71-49.06 5-69.18 20.3s-66.93 92.5-66.93 92.5c-1.16 31.93 19.94 60.24 34.86 76.54l77-86.23 68.62-73s-.16-12.38-12.33-23.07S535 354 535 354Z"></path><path d="M526 407.34c-25.95-2.63-52.27 16.92-52.27 16.92l-53 36.85-47.55.12-50.18 2.89c11.43 7.82 55.42 21.05 72.57 26l5.64 12.7s4.89 13.16-27.82 16.54-92.12-6.77-116.56-7.9-67.74 4.54-67.74 4.54-90.61 28.2-98.89 27.45-4.88-7.9.38-15.05l-13.16 7.9s-1.88.75-.38 8.65c1.22 6.39 4.32 9.19 4.89 10.53s41-3.39 41-3.39l74.82-26.69L373 542.33l48.51-13.92c-9.43-11.92-16.17-25.56-20.68-42.11 4.39-.8 15.24-2.68 16.16-.37 1.51 3.76 9.78 17.67 18.05 16.92s12.79-8.28 16.55-10.91 2.77-14.66 2.77-14.66 61.48-39.48 71.64-69.94Z" style="mix-blend-mode:multiply" fill="#aec5e7" opacity=".55"></path><path fill="#ccdbf0" d="M571.12 359.59c4.89.37 9.66 4.85 9.34 6.18s-6.71 5.47-6.71 5.47-6.39-1.88-6.39-2.25 2.25-7.9 2.25-8.27 1.51-1.13 1.51-1.13Z"></path><path fill="#f68e6c" d="M542.23 344.47a70.28 70.28 0 0 1 7.41-8.77c2.52-2.57 5.07-4.87 7.6-7 5.06-4.29 10.06-8 14.92-11.69a12.16 12.16 0 0 1 17.39 16.53l-.91 1.32c-3.49 5.14-6.9 10.19-9.69 15.06a67 67 0 0 0-3.57 7.06 26.12 26.12 0 0 0-1.85 6.15c-1.46 10.52-8.5 10-19 8.5s-20.54-3.29-19.08-13.81a19.2 19.2 0 0 1 3.29-8.38Z"></path><path d="M535.81 353.82c16.13-2.13 29.29-4 33.43.13a15.25 15.25 0 0 1 4.51 8.65l7.52-16.17-15-8.65-24.44-1.88-9.83 6.39v10.15Z" style="mix-blend-mode:multiply" fill="#aec5e7" clip-path="url(#d)" opacity=".33"></path><path fill="#f79c7f" d="M536.73 316.13c-.53 3.32 4.7 7.62 4 8.55-1.41 1.79-6.57-3.56-6.74-1.49-.45 5.6-4.5 9.06-2.36 14.76 3.43 9.16 37 16.8 46.57 8.4 16.35-14.39 32.59-30.41 24.53-42.84-4.11-6.34-31.44-23-39-13.74-11.1 13.71-12.07 9.86-21.16 13.51-3.3 1.33 1.43 5 0 7.28-2.07 3.44-5.64 4.33-5.84 5.57Z"></path><path fill="#f68e6c" d="M520.14 405.23c-.24.39-.51.74-.78 1.1-.14.17-.26.34-.41.52l-.45.55c-.3.35-.6.71-.91 1.05s-.65.72-1 1.08c-1.31 1.41-2.75 2.82-4.23 4.21-.74.7-1.51 1.4-2.29 2.07s-1.57 1.37-2.38 2-1.63 1.34-2.46 2l-2.5 2c-6.68 5.38-13.46 11-20.42 16.5q-5.22 4.17-10.59 8.32c-3.58 2.77-7.22 5.52-11 8.23s-7.63 5.4-11.71 8q-3.06 2-6.34 3.91c-.53.33-1.1.65-1.67 1l-1.7.95c-.57.32-1.18.63-1.77.95s-1.18.63-1.81.94l-1.91.92c-.32.15-.63.31-1 .46l-1 .44a76.68 76.68 0 0 1-4.13 1.61 68.15 68.15 0 0 1-8.43 2.41 82.11 82.11 0 0 1-16.53 1.86 114.14 114.14 0 0 1-15.19-.85c-4.82-.6-9.42-1.39-13.86-2.22-8.9-1.66-17.21-3.57-25.39-5a161.21 161.21 0 0 0-24.22-2.62h-.19a10.25 10.25 0 0 1-1.73-20.31 162 162 0 0 1 28-2.72c9.2-.15 18.18.16 26.62.28 4.22 0 8.3 0 12.18-.21a85.33 85.33 0 0 0 10.93-1.21 45 45 0 0 0 9.16-2.69 36.22 36.22 0 0 0 3.9-1.92c.61-.35 1.22-.71 1.8-1.1l1.89-1.23c.32-.21.67-.47 1-.7s.68-.47 1-.73l1.06-.79c.36-.26.71-.51 1.08-.8q2.18-1.67 4.4-3.53c3-2.47 6-5.14 9-7.9 6-5.55 12.07-11.44 18.11-17.47l18.42-18.48 2.37-2.35c.8-.79 1.6-1.57 2.42-2.34s1.67-1.54 2.53-2.29 1.74-1.49 2.64-2.21c1.83-1.45 3.71-2.86 5.76-4.21.51-.33 1-.67 1.56-1s1.09-.65 1.64-1l.84-.46c.27-.16.59-.32.88-.47.6-.31 1.2-.61 1.82-.89A23 23 0 0 1 522 402.36Z" data-name="SVGID"></path><path d="M415.45 455.09c-11.66 18.43-92.5 13-92.5 13l90.62 20.14 23.69-15-9.78-18.05Z" style="mix-blend-mode:multiply" fill="#aec5e7" clip-path="url(#e)" opacity=".33"></path><path fill="#5e1512" d="M575.25 282.51c-13.16-12.41-13.73 1-14.29 6-1.12 10.15 8.28 15.42 15.89 16 .17 1.52 5.19 5.66 5.55 10.32.37 4.84-.85-1-1.88.38s-1.3 10.8-.38 10.53c3.76-1.13 7.16 2.41 6.56 5.19-2 9.48-10.69 11.15-12.79 11.46-1.15.17-3-.25-4.41 4.86-.59 2.12-.92 6.34 2.18 6.34.38 0 5.72 1.53 12.6-3.43 4.11-3 37.6-12.39 34.59-39.09-1.35-12-7.14-24.06-15.79-22.18-2.68.58-.21-5.35-3.76-5.64-5.1-10.2-20-11.12-23.69-7.9-2.54 2.25-.38 7.16-.38 7.16Z"></path><path fill="#4c4f7b" d="M67.27 560.75s-3.81 5.72-18 8.27c-1.54-2.79-22.5-44.76-24.13-49.28 8-2.93 33.72 22.18 34.21 22.9.86 12.8 7.92 18.11 7.92 18.11Z"></path><path fill="#f68e6c" d="M327.84 449.08c-6-2.26-24.06-6.39-30.83-2.26s-23.69 13.16-24.44 17.3 26.69 2.25 26.69 2.25 11.28 2.26 16.55 3.76 15.79-9 15.79-9Z"></path><path fill="#ccdbf0" d="M459.44 394.56s21.2-24.69 33.47-28.58c15.41-4.89 30.52.38 34.25 10s6 18.62-1.16 31.78c-11.78 21.68-73.33 63.92-73.33 63.92s5.27 10.15-2.63 14.66-16.22 6.47-18.8 5.64c-10.53-3.38-29.7-52.26-27.07-58.28s13.16-12 18.05-11.66 6 3.76 6 3.76Z" data-name="SVGID"></path><path d="M413.08 464.24c8.39 6.27 21.92 4.39 26.06 2.13s5.41-8.7 5.41-8.7 61.14-19.5 81.07-49.2 14.61 19.66 14.61 19.66l-68 63.81-40.61 13.91-29.12-20.15Z" style="mix-blend-mode:multiply" fill="#aec5e7" clip-path="url(#f)" opacity=".33"></path><path fill="#7ea3d6" d="M415.72 471.22a1 1 0 0 1-.84-.51c-3.39-6.61-10-26.34-11.53-32-1.43-5.31.45-7.13 2.63-9.24.5-.49 1-1 1.53-1.57a3 3 0 0 1 2.16-1.16c1.3 0 2.2.95 3 1.81a4.63 4.63 0 0 0 1.1 1l.07-.07c.27-.27.27-.27-.2-.95-.65-.94-1.74-2.52.22-4.9a6.62 6.62 0 0 1 4.78-2.06c3.41-.28 7.89.84 9.17 1.95.89.78 1.08 2.09 1.32 3.74a21.48 21.48 0 0 0 2 7 .93.93 0 0 1-.42 1.26.94.94 0 0 1-1.26-.42 23.25 23.25 0 0 1-2.18-7.55 5.4 5.4 0 0 0-.7-2.59c-.64-.56-4.44-1.77-7.77-1.5a5.12 5.12 0 0 0-3.49 1.39c-1.06 1.28-.7 1.79-.12 2.63.48.68 1.36 2 0 3.35a1.93 1.93 0 0 1-1.4.62 3.76 3.76 0 0 1-2.45-1.55c-.52-.54-1.16-1.22-1.61-1.22-.27 0-.58.29-.79.52-.56.64-1.1 1.17-1.63 1.68-2 2-3.27 3.16-2.12 7.4 1.52 5.62 8.05 25.14 11.39 31.65a1 1 0 0 1-.41 1.27.94.94 0 0 1-.45.02ZM452.49 487.05a.93.93 0 0 1-.93-.8.94.94 0 0 1 .79-1.07s.42-.27.7-2c.61-3.85-.24-10.06-1.23-11.05-1.31-1.31-3.36-5.15-6.2-10.46-1.46-2.74-3.12-5.85-4.86-8.91a.94.94 0 0 1 .36-1.28.93.93 0 0 1 1.28.35c1.75 3.09 3.41 6.2 4.88 8.95 2.55 4.78 4.76 8.91 5.87 10 1.94 1.94 2.56 10.73 1.4 14.21-.42 1.24-1.06 1.93-1.93 2.05Z"></path><path fill="#cf7455" d="M281.62 457.2a1.14 1.14 0 0 1-.59-2.12c.52-.32 12.88-7.8 19.71-11.05s17.14 1.9 19.21 3a365.26 365.26 0 0 1 40.19-3.5c20.17-.61 39.23-1.18 43.56-2a1.14 1.14 0 0 1 .45 2.24c-4.2.83-20.13 1.37-43.94 2.08a361.62 361.62 0 0 0-40.28 3.53l-.38.06-.35-.19c-.11-.06-11.24-6.08-17.48-3.1C295 449.29 282.34 457 282.21 457a1.15 1.15 0 0 1-.59.2ZM564 351.13c-9.22 0-27.46-3.59-32.17-10.61-2.89-3.84-2.14-8.66-.62-11.62a1.16 1.16 0 0 1 1.54-.5 1.14 1.14 0 0 1 .49 1.54c-.27.53-2.56 5.27.44 9.23v.06c4.49 6.77 25.48 10.6 33.1 9.45a1.14 1.14 0 1 1 .34 2.26 21.75 21.75 0 0 1-3.12.19Z"></path><path fill="#ccdbf0" d="m580.52 366.36-2.63 10.44a15 15 0 0 1-14.29 4.6c-9-1.88-30.08-13.54-34.6-17.3s-9.4-3.76-9.4-4.14 15.8-10.15 15.8-10.15 10.15 8.27 17.67 14.29 19.55 6.39 21.81 3.76 3.38-4.14 4.51-3.76 1.13 2.26 1.13 2.26Z"></path><ellipse cx="602.7" cy="288.33" fill="#5e1512" rx="10.15" ry="8.46"></ellipse><ellipse cx="586.16" cy="308.45" fill="#5e1512" rx="13.54" ry="9.78"></ellipse><path fill="#fff" d="M327.84 185.5a5.65 5.65 0 0 1-5.64-5.64V143c-46.45-49.37-62.7-67.48-62.86-67.66a5.64 5.64 0 0 1 8.4-7.53c.17.18 16.71 18.62 64.21 69.09a5.63 5.63 0 0 1 1.53 3.86v39.11a5.64 5.64 0 0 1-5.64 5.63Z"></path><ellipse cx="327.67" cy="202.75" fill="#fff" rx="39.02" ry="27.64" transform="rotate(-24.58 327.6 202.726)"></ellipse><path fill="#fff" d="M240.51 250.17a5.64 5.64 0 0 1-2.82-10.53l20.91-12a8.48 8.48 0 0 0 1.84-13.27 10.1 10.1 0 0 1 7.23-17.16h114.84a18 18 0 0 1 15.1 27.79l-14.7 22.6a5.64 5.64 0 0 1-9.46-6.16l14.7-22.59a6.73 6.73 0 0 0-5.64-10.4H270.23a19.78 19.78 0 0 1-6 28.93l-20.9 12a5.64 5.64 0 0 1-2.82.79Z"></path><path fill="#ebcbc6" d="M300.3 208.79a1 1 0 0 1-.3 0 .94.94 0 0 1-.59-1.19c2.81-8.45 24.27-23.26 40.67-23.26h.43c9.75.15 14.39 3.17 16.56 5.67a9.56 9.56 0 0 1 2.45 7.44 1 1 0 0 1-1 .82.94.94 0 0 1-.82-1 7.77 7.77 0 0 0-2-6c-1.92-2.21-6.11-4.88-15.17-5-15.47-.25-36.67 14.11-39.29 22a.94.94 0 0 1-.94.52Z"></path><circle cx="327.84" cy="140.75" r="15.04" fill="#fff"></circle><circle cx="458.69" cy="593.09" r="36.85" fill="#fff"></circle><path fill="#fff" d="m63.57 586.27 143.89-52.68L350 544l-10.43 44.51-117.7-19.8S117.6 591.8 98.93 592.59s-35.36-6.32-35.36-6.32Z"></path><circle cx="586.91" cy="405.08" r="14.29" fill="#fff"></circle><path fill="#fff" d="M536.11 502.52S596.66 418 584 394.56L442.61 549.47l-210.28-23.31S245.46 589 279.05 589c0 0 51.53 20.42 66.18 26.32 56 22.56 162.81 22.19 140.27-42.34 16.94-17.83 35.16-45 50.55-70.53Z"></path><path fill="#fff" d="M580.64 405.11h-1.46a5.64 5.64 0 1 1 .42-11.27c11.74.44 24-6.64 32.73-19 6.73-9.44 9.19-19.11 7.68-23a5.64 5.64 0 1 1 10.51-4.09c3.21 8.25-.32 21.45-9 33.63-10.64 14.95-25.82 23.73-40.88 23.73Z"></path><path fill="#ef4050" d="M39.38 578.54c.89-.71 1.79-1.35 2.69-2l2.73-1.89c1.84-1.2 3.68-2.42 5.54-3.56q5.58-3.44 11.3-6.47c7.63-4.06 15.42-7.67 23.32-11l11.82-5 11.89-4.82c4-1.63 8-3.14 12-4.69l6-2.32 6-2.25 24-9 12-4.5 12-4.63c4-1.51 8-3.16 12-4.74l6.08-2.41.77-.3 1.26-.45 1.27-.43.63-.21.3-.08a18.57 18.57 0 0 1 2.23-.39c.93-.1.58-.06.94-.09h11.98c2.19 0 4.36-.07 6.53-.1 4.33 0 8.65-.23 13-.36s8.63-.35 12.94-.45 8.62-.18 12.91-.13c8.58.1 17.12.74 25.63 1.66l12.77 1.31 12.76 1.42 6.37.71 6.38.77c4.24.52 8.49 1 12.74 1.57l12.73 1.65 12.62 1.64 12.72 1.85 12.7 2c4.23.68 8.46 1.3 12.69 2l12.68 2.21c8.45 1.52 16.89 3.11 25.32 4.94l-11.76 4.77q1.29-3.34 2.85-6.45c.51-1.05 1.05-2.06 1.58-3.09s1.1-2 1.67-3c2.26-4 4.7-7.82 7.27-11.54A210.59 210.59 0 0 1 460 489.6c6-6.71 11.93-13.46 18-20.1l4.53-5q2.25-2.5 4.56-5l9.19-9.88q18.56-19.64 38.08-38.4c6.54-6.23 13.05-12.48 19.68-18.64L559 388l2.48-2.32a30.66 30.66 0 0 1 2.57-2.23 21.91 21.91 0 0 1 6.46-3.34c.6-.22 1.29-.37 1.94-.55s1.37-.3 2.12-.4a22.55 22.55 0 0 1 4.91-.21l2.34.16a7.38 7.38 0 0 1 6.85 7.76 19.86 19.86 0 0 1-.65 3.89 27.24 27.24 0 0 1-1.17 3.44 31.4 31.4 0 0 1-3.34 6c-1.32 1.83-2.79 3.53-4.19 5.29l-4.26 5.23c-5.65 7-11.42 13.9-17.16 20.81q-17.34 20.67-35.2 40.88L487.18 513l-8.92 10.11c-3 3.36-5.93 6.76-9 10.09l-9.1 10-4.62 4.91-2.31 2.46-2.31 2.43-1.11 1.14a12.45 12.45 0 0 1-10.65 3.63c-34.14-1.89-68.23-4.43-102.3-7.06-8.51-.7-17-1.33-25.54-2.07l-25.54-2.16q-12.76-1.05-25.49-2.52l-25.41-3.23c-4.23-.53-8.45-1.11-12.67-1.54-2.11-.23-4.22-.47-6.31-.67s-4.19-.38-6.18-.53l-1.42-.1h-.58c-.14 0-.33 0 0 0H208.56a11.72 11.72 0 0 0 1.55-.28c.2-.05 0 0 .06 0l-.18.07-.36.12-.37.12-.74.24-6 2-12.11 4.09-12.12 4.13-12.09 4.24L142 561l-24.16 8.57L93.62 578c-4 1.42-8.07 2.8-12.11 4.18l-12.14 4.14-12.16 4-12.21 4a8.19 8.19 0 0 1-7.64-14.17ZM595.26 345.89a75.47 75.47 0 0 0 8.67-5.79 52.37 52.37 0 0 0 7.22-6.93 72.9 72.9 0 0 0 6.37-8.58c1-1.56 2-3.17 3-4.82l1.43-2.47.71-1.22.35-.58.16-.26.08-.1v-.05a9.22 9.22 0 0 1 18.09 3.58l-.15 2.34c-.06.7-.13 1.38-.23 2-.18 1.35-.44 2.67-.73 4a51.44 51.44 0 0 1-11 21.71A46.08 46.08 0 0 1 616 359.51c-.63.36-1.29.66-1.94 1s-1.31.61-2 .87a40.69 40.69 0 0 1-4.07 1.39 35.34 35.34 0 0 1-8.35 1.36 9.48 9.48 0 0 1-5.37-17.58Z"></path><circle cx="628.65" cy="361.84" r="8.65" fill="#fff"></circle><path fill="#ebcbc6" d="M454.37 620.16A27.64 27.64 0 1 1 482 592.52a27.67 27.67 0 0 1-27.63 27.64Zm0-53.39a25.76 25.76 0 1 0 25.75 25.75 25.78 25.78 0 0 0-25.75-25.75ZM414.51 709.65a.94.94 0 0 1-.94-.94v-9.27a19.52 19.52 0 0 0-19.5-19.44H369a.94.94 0 1 1 0-1.88h25.06a21.4 21.4 0 0 1 21.38 21.37v9.27a.94.94 0 0 1-.93.89ZM165.22 709.27a.94.94 0 0 1-.94-.94v-15.79a14.48 14.48 0 0 1 14.47-14.47.94.94 0 0 1 0 1.88 12.61 12.61 0 0 0-12.59 12.59v15.79a.94.94 0 0 1-.94.94ZM109.85 598.91c-14.64 0-26.6-3.24-33.89-7.85a.94.94 0 0 1-.29-1.3.93.93 0 0 1 1.29-.29c11.53 7.29 36.91 11.19 65.42 2.53 29.71-9 79.34-24.06 79.34-24.06a.78.78 0 0 1 .43 0l76.29 12.35a.94.94 0 0 1-.3 1.86l-76.08-12.35c-3.51 1.06-50.55 15.32-79.13 24a114.42 114.42 0 0 1-33.08 5.11ZM340.81 680H205.07a.94.94 0 0 1 0-1.88h135.74a.94.94 0 0 1 0 1.88Z"></path><path fill="#ebcbc6" d="M453.63 631.85a40.54 40.54 0 0 1-22.07-6.19c-9.94-6.41-16.37-17.42-18.62-31.88-15.64-1.15-38.92-4-39.16-4.08a.94.94 0 0 1 .24-1.87c.24 0 24.22 3 39.81 4.13a.94.94 0 0 1 .86.81c2.06 14.27 8.24 25.1 17.88 31.31 9.47 6.11 22 7.54 34.46 3.94a.94.94 0 1 1 .53 1.81 50.31 50.31 0 0 1-13.93 2.02Z"></path><path fill="#ebcbc6" d="M384.81 678.82h-.15a1 1 0 0 1-.78-1.08l13.91-86.48a.94.94 0 1 1 1.86.3L385.73 678a.93.93 0 0 1-.92.82ZM211.84 669h-.1a.94.94 0 0 1-.83-1c2.66-23.58 25.35-34.21 45.83-34.31l-22.84-62.27a.94.94 0 1 1 1.76-.65L259 634.31a.93.93 0 0 1-.11.87.9.9 0 0 1-.79.4c-20-.35-42.7 9.69-45.29 32.63a.94.94 0 0 1-.97.79ZM281.78 635.58a.94.94 0 0 1-.94-.89l-2.63-45.87a.94.94 0 0 1 1.88-.11l2.63 45.87a1 1 0 0 1-.89 1Z"></path><path fill="#ab97a6" d="M712.31 710H398.72a.94.94 0 1 1 0-1.88h313.59a.94.94 0 1 1 0 1.88ZM211.84 710.78H137a.94.94 0 1 1 0-1.88h74.82a.94.94 0 1 1 0 1.88ZM293.06 710.78h-42.49a.94.94 0 1 1 0-1.88h42.49a.94.94 0 1 1 0 1.88Z"></path><path fill="#fff" d="M295.61 358.84c-26.14-15.47-91.81-37.27-121.18-33.84-8.84 1-14.54 19.39-22.16 24.24-18.56 11.82-10.85 31.74 8.86 34.8 24.41 3.79 76.74 0 101.44 0 9.57 0 21.64 2 31 0 16.13-3.52 17.43-17.93 2.04-25.2Z"></path><path fill="#fff" d="M321.61 403.72h-37.2a4.84 4.84 0 1 1 0-9.68h37.2a3.42 3.42 0 0 0 2.73-5.48l-13.11-17.4a2.14 2.14 0 0 1-.13-.19.38.38 0 0 0-.29-.15h-28.47a4.84 4.84 0 0 1 0-9.68h28.47a10 10 0 0 1 8.21 4.27l13.05 17.32a13.11 13.11 0 0 1-10.46 21Z"></path><path fill="#ebcbc6" d="M242.86 391.17a.94.94 0 0 1-.94-.94l.11-16.18a10.35 10.35 0 0 0-6.69-9.77l-49.77-18.66a.94.94 0 0 1-.55-1.21.93.93 0 0 1 1.21-.55L236 362.52a12.23 12.23 0 0 1 7.91 11.54l-.11 16.18a.93.93 0 0 1-.94.93ZM274.56 357.71h-31.82a30.59 30.59 0 0 1-11.19-2.12l-18.45-7.22a1.39 1.39 0 0 1 .51-2.69H245a19.06 19.06 0 0 1 6.92 1.3l23 9a.9.9 0 0 1-.36 1.73ZM258.09 369.18h-7.52a1.88 1.88 0 0 1 0-3.76h7.52a1.88 1.88 0 1 1 0 3.76ZM258.28 378.39h-7.52a1.88 1.88 0 0 1 0-3.76h7.52a1.88 1.88 0 1 1 0 3.76ZM291.56 369.18H284a1.88 1.88 0 0 1 0-3.76h7.52a1.88 1.88 0 0 1 0 3.76ZM266.59 370.12a9.48 9.48 0 0 1 2.41-.68 16.14 16.14 0 0 1 2.4-.17 13.72 13.72 0 0 1 2.39.23 8.52 8.52 0 0 1 2.39.8 2.12 2.12 0 0 1 .87 2.85 2 2 0 0 1-.95.91 8.48 8.48 0 0 1-2.41.71 12.89 12.89 0 0 1-2.4.14 16 16 0 0 1-2.39-.26 10.07 10.07 0 0 1-2.39-.77 2.07 2.07 0 0 1 .08-3.76ZM291.74 378.39h-7.52a1.88 1.88 0 0 1 0-3.76h7.52a1.88 1.88 0 0 1 0 3.76Z"></path><path fill="#ebcbc6" d="M224.81 366.36a5.26 5.26 0 0 0-5.26 5.26V387h10.53v-15.38a5.26 5.26 0 0 0-5.27-5.26Z"></path><path fill="#dbb1a9" d="M224.06 378.39a1.86 1.86 0 0 1-1-.27 1.89 1.89 0 0 1-.65-2.58l10.15-16.92a1.88 1.88 0 0 1 3.23 1.93l-10.16 16.93a1.88 1.88 0 0 1-1.57.91Z"></path><path fill="#ebcbc6" d="M203 366.36a5.26 5.26 0 0 0-5.27 5.26V387h10.53v-15.38a5.26 5.26 0 0 0-5.26-5.26ZM180.82 366.36a5.25 5.25 0 0 0-5.26 5.26V387h10.53v-15.38a5.26 5.26 0 0 0-5.27-5.26Z"></path><path fill="#dbb1a9" d="M198.31 367.11a.87.87 0 0 1-.42-.1l-10.53-5.27a.93.93 0 0 1-.42-1.26.94.94 0 0 1 1.26-.42l10.53 5.27a.94.94 0 0 1-.42 1.78ZM202.25 378.39a1.86 1.86 0 0 1-1-.27 1.89 1.89 0 0 1-.65-2.58l10.15-16.92a1.88 1.88 0 0 1 3.23 1.93l-10.15 16.93a1.91 1.91 0 0 1-1.58.91Z"></path><path fill="#dbb1a9" d="M212 364.85a1.87 1.87 0 0 1-1.59-2.87l1.16-1.87a1.88 1.88 0 0 1 3.19 2l-1.13 1.89a1.88 1.88 0 0 1-1.63.85ZM234.34 364.74a1.92 1.92 0 0 1-1-.29 1.88 1.88 0 0 1-.6-2.59l1.17-1.87a1.88 1.88 0 0 1 3.19 2l-1.17 1.87a1.88 1.88 0 0 1-1.59.88ZM178.94 378.39a1.92 1.92 0 0 1-1-.27 1.88 1.88 0 0 1-.64-2.58l10.15-16.92a1.88 1.88 0 0 1 3.23 1.93l-10.16 16.93a1.88 1.88 0 0 1-1.58.91Z"></path><path fill="#ebcbc6" d="M226.32 341.54h-12a1.88 1.88 0 1 1 0-3.76h12a1.88 1.88 0 0 1 0 3.76Z"></path></g></g></svg>