<?xml version="1.0" encoding="utf-8"?>
<!-- Generator: Adobe Illustrator 28.0.0, SVG Export Plug-In . SVG Version: 6.00 Build 0)  -->
<svg version="1.1" id="CompanyLogo" xmlns="http://www.w3.org/2000/svg" xmlns:xlink="http://www.w3.org/1999/xlink" x="0px"
	 y="0px" viewBox="0 0 300 300" style="enable-background:new 0 0 300 300;" xml:space="preserve">
<style type="text/css">

		.st0{clip-path:url(#PathR_00000080204005521723903350000004101606964782691987_);fill:none;stroke:#000000;stroke-width:28;stroke-miterlimit:10;}

		.st1{clip-path:url(#PathL_00000117639858147883370670000005669349795201057213_);fill:none;stroke:#000000;stroke-width:28;stroke-miterlimit:10;}
</style>
<g id="R">
	<defs>
		<path id="PathR" d="M286.4,71.8V233c0,3-0.2,6-0.8,8.9c-2.9,16.3-30.6,53.1-61.2,53.4c0,0-40,1.6-60.4-26.3
			c-0.3-0.5-0.3-1.1,0.1-1.5l12.7-12.7c0.5-0.5,1.2-0.4,1.6,0c2.7,2.9,16.5,21.7,40.9,20.2c33.6-2,45.2-34.9,45.2-43.8
			c0,0,0.8-172.4,0.1-175.2c-10-42-63.4-38.8-84.5-14.7l-59.6,60.1c-3,3-4.6,7.1-4.6,11.3c-0.1,1-0.2,2.1-0.2,3.1l-2.6,57.8
			c0,2.6,0.7,5,2.1,7.2c2.1,3.3,20.2,29.4,19.7,29.9c-3.8,3.8-8.5,8.5-12.2,12.2c-0.4,0.4-1.1,0.5-1.5,0.1
			c-3.6-3-15.9-18.9-25.6-38.4c-2.2-4.4-1.5-4.7-1.5-10.1l0.8-59c-0.8-19.3,3.4-22.9,15.9-35.6l51.1-51
			C178,16.3,183.5,1.1,234.8,5.8c22.2,2.1,38.7,17.3,47.5,32.4c2.7,4.7,4.1,10.1,4.1,15.5C286.4,60,286.4,67.3,286.4,71.8z"/>
	</defs>
	<clipPath id="PathR_00000102522416613021462660000013602608196136858537_">
		<use xlink:href="#PathR"  style="overflow:visible;"/>
	</clipPath>

		<path id="MaskR" style="clip-path:url(#PathR_00000102522416613021462660000013602608196136858537_);fill:none;stroke:#000000;stroke-width:28;stroke-miterlimit:10;" d="
		M132,218.3l-27-38.3v-77.1c0,0,50.7-57.2,60.4-67.4c9.7-10.2,42.1-22.5,52.3-23.4s31.3,5.1,38.3,12.1s17.9,1.1,20.6,42.7
		s0,163.9,0,163.9s-3.9,24.8-15.2,34.5c-11.3,9.7-22.7,20.3-33.4,19.8s-25.9-3.7-31.3-5.3c-5.4-1.6-28.6-22.1-28.6-22.1"/>
</g>
<g id="L">
	<defs>
		<path id="PathL" d="M13.6,228.2V67c0-3,0.2-6,0.8-8.9C17.2,41.7,45,5,75.6,4.7c0,0,40-1.6,60.4,26.3c0.3,0.5,0.3,1.1-0.1,1.5
			l-12.7,12.7c-0.5,0.5-1.2,0.4-1.6,0c-2.9-2.8-16.6-21.7-41-20.2C47,27,35.4,59.8,35.4,68.7c0,0-0.8,172.4-0.1,175.2
			c10,42,63.4,38.8,84.5,14.7l59.6-60.1c3-3,4.6-7.1,4.6-11.3c0.1-1,0.2-2.1,0.2-3.1l2.6-57.8c0-2.6-0.7-5-2.1-7.2
			c-2.1-3.3-20.2-29.4-19.7-29.9c3.8-3.8,8.5-8.5,12.2-12.2c0.4-0.4,1.1-0.5,1.5-0.1c3.6,3,15.9,18.9,25.6,38.4
			c2.2,4.4,1.5,4.7,1.5,10.1l-0.8,59c0.8,19.3-3.4,22.9-15.9,35.6L138,271c-15.9,12.6-21.5,27.9-72.8,23.1
			C43,292,26.5,276.8,17.7,261.7c-2.7-4.7-4.1-10.1-4.1-15.5C13.6,240,13.6,232.7,13.6,228.2z"/>
	</defs>
	<clipPath id="PathL_00000173855298673249061510000007456422096286519741_">
		<use xlink:href="#PathL"  style="overflow:visible;"/>
	</clipPath>

		<path id="MaskL" style="clip-path:url(#PathL_00000173855298673249061510000007456422096286519741_);fill:none;stroke:#000000;stroke-width:28;stroke-miterlimit:10;" d="
		M132,42c0,0-16.7-31.9-52.3-29.8S24.2,58.7,24.2,58.7v192c0,0,12.4,25.9,28.6,31.3c16.2,5.4,45.8,2.7,53.9,0s65.3-58.8,65.3-58.8
		l21.6-22.7l3.2-78.7L171,78.7"/>
</g>
</svg>
