<?xml version="1.0" encoding="utf-8"?>
<!-- Generator: Adobe Illustrator 26.0.1, SVG Export Plug-In . SVG Version: 6.00 Build 0)  -->
<svg version="1.1" id="Layer_1" xmlns="http://www.w3.org/2000/svg" xmlns:xlink="http://www.w3.org/1999/xlink" x="0px" y="0px"
	 viewBox="0 0 407.4 109.6" style="enable-background:new 0 0 407.4 109.6;" xml:space="preserve">
<style type="text/css">
	.st0{fill-rule:evenodd;clip-rule:evenodd;}
</style>
<path d="M138.3,83.4c4.1,2,9,3,14.7,3c6,0,11.1-1.1,15.5-3.4c4.3-2.2,7.7-5.2,10.2-9c2.5-3.7,4-7.9,4.6-12.3H171
	c-0.7,4.2-2.7,7.5-6,9.8c-3.2,2.3-7.2,3.5-11.9,3.5c-3.2,0-6.1-0.5-8.5-1.6s-4.5-2.6-6.1-4.6c-1.7-2-2.9-4.3-3.8-7
	c-0.8-2.6-1.2-5.5-1.2-8.6c0-3.2,0.4-6.2,1.2-8.8c0.9-2.6,2.1-5,3.7-6.9s3.6-3.5,6-4.5c2.4-1.1,5.2-1.6,8.3-1.6s5.8,0.5,8.2,1.6
	c2.4,1,4.4,2.5,6,4.5s2.6,4.4,3.1,7.3h12.3c-0.5-5-2-9.3-4.6-13c-2.5-3.7-5.9-6.6-10.2-8.6c-4.2-2.1-9.2-3.1-14.9-3.1
	c-5.5,0-10.2,0.9-14.2,2.8c-4,1.8-7.3,4.3-9.8,7.4c-2.6,3.1-4.5,6.6-5.8,10.4c-1.2,3.8-1.8,7.7-1.8,11.6v1.9c0,3.5,0.6,7.2,1.8,11
	c1.2,3.8,3.1,7.3,5.6,10.5C130.9,78.8,134.2,81.4,138.3,83.4z"/>
<path class="st0" d="M215.2,79.1c0.6-1,1.1-2.1,1.5-3.3v9h9.5V55.7c0-4.4-0.8-7.9-2.5-10.6c-1.6-2.7-4-4.7-7.3-6
	c-3.2-1.3-7.2-1.9-12-1.9c-1.6,0-3.2,0-5,0.1c-1.7,0-3.4,0.1-5.1,0.2c-1.7,0.1-3.2,0.2-4.5,0.3V48c1.6-0.1,3.4-0.2,5.4-0.3
	c2.1-0.1,4.1-0.2,6.1-0.3s3.7-0.1,5.2-0.1c2.8,0,4.8,0.7,6.1,2s2,3.3,2,6v0.4H205c-4.1,0-7.8,0.5-10.9,1.6c-3.1,1.1-5.4,2.7-7.2,4.9
	c-1.7,2.2-2.5,5-2.5,8.5c0,3.2,0.7,5.9,2.1,8.1c1.4,2.2,3.4,4,6,5.2s5.6,1.8,9,1.8c3.3,0,6-0.6,8.3-1.7
	C212.2,83.1,214,81.4,215.2,79.1z M213.1,73.5c1-1.5,1.5-3.5,1.6-6V63H205c-2.8,0-4.9,0.7-6.4,2.1c-1.4,1.3-2.2,3.1-2.2,5.2
	s0.7,3.9,2.2,5.2c1.5,1.3,3.6,2,6.4,2c1.7,0,3.2-0.3,4.6-0.9C211,76,212.2,74.9,213.1,73.5z"/>
<path d="M255.6,86.4c-4.1,0-7.6-0.7-10.6-2.1c-2.9-1.4-5.4-3.2-7.4-5.5s-3.4-4.9-4.4-7.8s-1.5-5.8-1.5-8.8v-1.6
	c0-3.2,0.5-6.2,1.5-9.1c1-2.9,2.6-5.5,4.6-7.8s4.5-4.1,7.4-5.4c3-1.4,6.4-2.1,10.4-2.1c4.1,0,7.7,0.8,11,2.4
	c3.2,1.6,5.8,3.7,7.7,6.6c2,2.8,3.1,6.1,3.3,9.8h-11.7c-0.3-2.4-1.3-4.4-3.1-6c-1.7-1.6-4.1-2.4-7.2-2.4c-2.6,0-4.9,0.6-6.6,1.9
	c-1.7,1.3-3,3-3.9,5.3c-0.9,2.2-1.3,4.7-1.3,7.6c0,2.8,0.4,5.3,1.2,7.5c0.9,2.2,2.2,4,3.9,5.3c1.8,1.3,4.1,1.9,6.8,1.9
	c2.1,0,3.9-0.4,5.4-1.1s2.7-1.8,3.5-3.1c0.9-1.3,1.5-2.8,1.7-4.5H278c-0.2,3.8-1.4,7.1-3.4,10c-2,2.8-4.6,5-7.9,6.6
	C263.4,85.6,259.7,86.4,255.6,86.4z"/>
<path d="M292.8,83.8c2.8,1.1,6.4,1.6,10.7,1.6h6.7V75.1h-7.3c-2.3,0-4.1-0.6-5.4-1.8c-1.2-1.3-1.8-3.1-1.8-5.4V46.7h14.5v-8.8h-14.4
	V24.7h-11.2v13.2h-7.5v8.8h7.5v20.5c0,4.5,0.7,8.2,2.1,10.9C288,80.7,290,82.6,292.8,83.8z"/>
<path d="M332,86.3c-5.4,0-9.6-1.8-12.6-5.4C316.5,77.3,315,72,315,65V37.8h12V66c0,2.9,0.8,5.2,2.4,6.9c1.6,1.7,3.8,2.5,6.6,2.5
	c2.8,0,5-0.9,6.7-2.7c1.8-1.8,2.7-4.2,2.7-7.3V37.8h12v47h-9.5V73.9c-0.2,1-0.5,1.9-0.9,2.8c-1.2,3.2-3,5.6-5.4,7.2
	s-5.4,2.4-9.1,2.4H332z"/>
<path d="M368.7,82.2c3.7,2.7,8.8,4.1,15.2,4.1c4.1,0,7.7-0.6,10.8-1.9c3.1-1.3,5.4-3,7.1-5.3s2.6-5,2.6-8.1c0-4.2-1.6-7.5-4.7-10
	s-7.4-4-13-4.6l-4.1-0.4c-2.5-0.3-4.4-0.8-5.5-1.6s-1.6-2-1.6-3.5c0-1.6,0.7-2.8,2.1-3.8s3.3-1.5,5.9-1.5c2.8,0,5,0.6,6.5,1.7
	c1.5,1.2,2.3,2.5,2.4,4.1h10.8c-0.2-4.9-2-8.6-5.6-11.1s-8.2-3.8-14-3.8c-3.7,0-7,0.6-9.8,1.7c-2.8,1.1-5,2.7-6.6,4.9
	s-2.4,4.9-2.4,8.1c0,4,1.4,7.3,4.2,9.7c2.8,2.4,6.9,3.9,12.1,4.5l4.1,0.4c3.1,0.3,5.3,0.9,6.6,1.8c1.3,0.9,2,2.2,2,3.7
	c0,1.8-0.9,3.2-2.6,4.2s-3.9,1.6-6.8,1.6c-3.5,0-6-0.7-7.6-2s-2.5-2.8-2.7-4.4H363C363.1,75.7,365,79.5,368.7,82.2z"/>
<path class="st0" d="M52.8,3C24.2,3,1,26.2,1,54.8s23.2,51.8,51.8,51.8s51.8-23.2,51.8-51.8S81.4,3,52.8,3z M12.6,54.8
	c0-22.2,18-40.2,40.2-40.2C75,14.6,93,32.6,93,54.8c0,20.3-15,37-34.5,39.8v-8.9l10.3-3.8c6-2.2,9.9-7.9,9.9-14.2V50.2
	c0-3.2-2.6-5.8-5.8-5.8s-5.8,2.6-5.8,5.8v17.5c0,1.5-0.9,2.8-2.3,3.3l-6.3,2.3v-46c0-3.2-2.6-5.8-5.8-5.8s-5.8,2.6-5.8,5.8v24.9
	L40.8,50c-1.4-0.5-2.3-1.8-2.3-3.3v-7.5c0-3.2-2.6-5.8-5.8-5.8s-5.8,2.6-5.8,5.8v7.5c0,6.4,4,12,9.9,14.2l10.1,3.7v29.9
	C27.5,91.7,12.6,75,12.6,54.8z"/>
</svg>
