<svg xmlns="http://www.w3.org/2000/svg" viewBox="0 0 512 512" id="clean-teeth"><path fill="#282d35" d="M470.25,127.56h0c-13.31-38.63-40.66-67.12-75-78.14-59.84-19.19-109.77,2.76-132.09,15.8C241.35,52.49,193.29,31.3,135.39,48.1L108.27-1.78,75.84,71.12,1,104.4,55.87,128C45.8,157.44,44.69,189.53,52,220.42l-.14.31-49.36,22L52.17,264,73.4,313.47l10.87-23.61c16.55,26.59,27.44,55.91,31.6,85.37q.41,2.87.79,5.86c4.67,36.23,11.6,65.44,20.6,86.81,11.67,27.72,27.37,42.75,46.65,44.68q1.86.19,3.68.19c19.5,0,35.25-16,46.85-47.69,7.85-21.41,14-50,17.38-80.44,1.69-15.33,5.5-27.54,11-35.3l.08-.09a.67.67,0,0,1,.2,0,.7.7,0,0,1,.21,0,.57.57,0,0,1,.08.09c5.51,7.76,9.32,20,11,35.3,3.36,30.46,9.53,59,17.38,80.44,11.6,31.64,27.41,47.68,47,47.68,1.16,0,2.35-.06,3.53-.18,19.28-1.93,35-17,46.65-44.68,9-21.37,15.93-50.57,20.6-86.81q.37-2.89.76-5.65c4.58-32.53,17.35-65,36.93-93.76C478.9,235.19,487.48,177.57,470.25,127.56ZM88,83.24l21.75-48.89,24.37,44.83,45.06,24.5L130.7,126l-21.46,46.6-20.6-48L41,104.15ZM64.35,251.87l-22-9.43,21.54-9.58,10.43-23.44,11.42,21L107,242,83.77,252.68,73.9,274.11Zm369.71,20.82c-20.95,30.82-34.62,65.58-39.54,100.52q-.4,2.86-.79,5.84c-4.49,34.8-11,62.61-19.48,82.64-9.23,21.9-20.5,33.67-33.5,35-.65.07-1.3.1-1.93.1-15.17,0-25.77-20.22-32-37.19-7.42-20.24-13.28-47.48-16.5-76.69-2-18-6.79-32.84-13.88-42.81a16.35,16.35,0,0,0-26.64,0c-7.09,10-11.89,24.78-13.88,42.81-3.22,29.22-9.08,56.45-16.5,76.69-9.5,25.91-20.9,38.4-33.92,37.09s-24.28-13.07-33.5-35c-8.44-20-15-47.84-19.48-82.65q-.4-3.09-.82-6.05c-4.93-34.89-18.56-69.54-39.44-100.22l-.08-.12,3.65-7.92,46.88-21.59L97.59,218.63,72.93,173.27l-9.08,20.41a148.44,148.44,0,0,1,6.78-59.39l5.82,2.5,32.28,75.14,34-73.9,72.06-33.18L145.88,67.38l-2.64-4.85c54.3-14.31,98.62,8.12,115.63,18.81L263.13,84l4.26-2.68c17.77-11.17,65.33-35.16,122.95-16.69,29.53,9.47,53.14,34.3,64.8,68.12h0C470.72,178,462.84,230.34,434.06,272.69Z"></path></svg>