<svg xmlns="http://www.w3.org/2000/svg" viewBox="0 0 68 68" id="dental-filling"><g fill="#222"><path d="M53.368 20.204a12.676 12.676 0 0 0-8.965-3.608 11.297 11.297 0 0 0-5.87 1.63 7.188 7.188 0 0 1-3.614 1.132 7.189 7.189 0 0 1-3.609-1.128 12.691 12.691 0 0 0-3.666-1.422 1 1 0 0 0-1.189.906c-.221 2.938-2.307 7.022-3.85 7.534-1.233.414-4.802-1.026-6.944-2.18a1 1 0 0 0-1.396.493 13.635 13.635 0 0 0-.96 5.675c.125 4.378 1.842 9.363 3.66 14.642 1.906 5.537 3.878 11.263 4.4 17.12.232 2.623 1.891 3.719 3.366 3.87a5.34 5.34 0 0 0 5.364-3.978 15.955 15.955 0 0 0 .362-2.908c.343-4.647.97-9.184 4.462-9.184s4.12 4.537 4.463 9.184a15.98 15.98 0 0 0 .362 2.912 5.422 5.422 0 0 0 4.937 3.996 4.176 4.176 0 0 0 .426-.022c1.475-.151 3.134-1.248 3.367-3.87.521-5.857 2.494-11.583 4.4-17.12 1.818-5.279 3.535-10.264 3.66-14.642v-.001a11.946 11.946 0 0 0-3.166-9.03Zm-2.385 23.022c-1.945 5.65-3.958 11.494-4.5 17.594-.11 1.233-.67 1.964-1.58 2.057a3.35 3.35 0 0 1-3.243-2.557 16.373 16.373 0 0 1-.284-2.486c-.304-4.128-.814-11.037-6.457-11.037s-6.152 6.909-6.457 11.037a16.385 16.385 0 0 1-.283 2.482 3.362 3.362 0 0 1-3.244 2.56c-.908-.092-1.47-.823-1.579-2.057-.543-6.1-2.555-11.943-4.5-17.594-1.767-5.129-3.436-9.974-3.553-14.045a12.503 12.503 0 0 1 .445-3.822c1.881.916 5.505 2.45 7.489 1.787 2.453-.814 4.451-5.009 5.05-8.103a13.887 13.887 0 0 1 2.09.957 9.018 9.018 0 0 0 4.542 1.36 9.016 9.016 0 0 0 4.55-1.365 9.356 9.356 0 0 1 4.934-1.398 10.64 10.64 0 0 1 7.532 3.003 10.027 10.027 0 0 1 2.6 7.58c-.116 4.073-1.785 8.917-3.552 14.047Z"></path><path d="M40.85 21.447a6.523 6.523 0 0 0-3.109 1.715 3.801 3.801 0 0 1-2.863 1.26 3.754 3.754 0 0 1-2.78-1.26 10.297 10.297 0 0 0-1.425-1.071 1 1 0 1 0-1.02 1.72 8.637 8.637 0 0 1 1.149.874 5.582 5.582 0 0 0 4.076 1.734c.08.004.157.005.234.005a5.73 5.73 0 0 0 3.924-1.738 4.71 4.71 0 0 1 2.187-1.274 1 1 0 1 0-.374-1.965zm-20.375-8.51c2.782-.923 4.98-6.197 5.212-9.28a1 1 0 0 0-.801-1.056 11.165 11.165 0 0 0-2.213-.213c-3.818 0-9.034 1.826-11.171 6.97a1 1 0 0 0 .449 1.264c.854.46 4.747 2.477 7.39 2.477a3.59 3.59 0 0 0 1.134-.162zm2.198-8.549c.308 0 .606.013.898.04-.516 2.806-2.342 6.151-3.729 6.612-1.081.361-3.96-.701-6.097-1.746 1.955-3.602 5.945-4.906 8.928-4.906zm-2.705 10.44a1 1 0 0 0-1 1v4.14l-.802-.614a1 1 0 0 0-1.216 1.588l2.41 1.845a.945.945 0 0 0 .12.064c.026.015.048.035.075.048.02.009.038.015.058.022a.993.993 0 0 0 .355.072.994.994 0 0 0 .355-.072l.058-.022c.027-.013.048-.033.074-.048a.941.941 0 0 0 .12-.064l2.41-1.845a1 1 0 1 0-1.215-1.587l-.802.614v-4.142a1 1 0 0 0-1-1z"></path></g></svg>