<svg xmlns="http://www.w3.org/2000/svg" viewBox="0 0 64 64" id="dental-implant"><g><circle cx="17" cy="12" r="1"></circle><path d="M22.835 6A6.809 6.809 0 0 0 18 8.089 1 1 0 0 0 19.418 9.5 4.827 4.827 0 0 1 22.835 8a1 1 0 0 0 0-2Z"></path><path d="M39.171 33A3.832 3.832 0 0 0 43 29.171V27h.39a4.987 4.987 0 0 0 4.31-2.481c.394-.683.825-1.347 1.257-2.013a23.74 23.74 0 0 0 2.487-4.533 11.869 11.869 0 0 0-4.853-14.462C42.884 1.3 37.188.961 32 6.324 26.813.961 21.117 1.3 17.409 3.511a11.867 11.867 0 0 0-4.857 14.459 23.714 23.714 0 0 0 2.487 4.537c.432.665.863 1.329 1.257 2.012A4.989 4.989 0 0 0 20.61 27H21v2.171A3.832 3.832 0 0 0 24.829 33H26v4h-2a1 1 0 0 0 0 2h2v4h-2a1 1 0 0 0 0 2h2v4h-2a1 1 0 0 0 0 2h2v4h-2a1 1 0 0 0 0 2h2a1 1 0 0 0 .105.447l2 4A1 1 0 0 0 29 62h6a1 1 0 0 0 .9-.553l2-4A1 1 0 0 0 38 57h2a1 1 0 0 0 0-2h-2v-4h2a1 1 0 0 0 0-2h-2v-4h2a1 1 0 0 0 0-2h-2v-4h2a1 1 0 0 0 0-2h-2v-4ZM20.61 25a2.984 2.984 0 0 1-2.582-1.48c-.41-.713-.86-1.407-1.311-2.1a21.811 21.811 0 0 1-2.293-4.152 9.869 9.869 0 0 1 4.009-12.039 8.6 8.6 0 0 1 4.395-1.209c2.6 0 5.555 1.181 8.34 4.36.728 1.465 1.627 3.511 5.4 3.537a1 1 0 0 0 0-2c-2.187 0-2.821-.866-3.364-1.937 4.451-4.78 9.273-4.593 12.363-2.751a9.87 9.87 0 0 1 4.009 12.039 21.869 21.869 0 0 1-2.292 4.149c-.451.695-.9 1.39-1.313 2.1A2.981 2.981 0 0 1 43.39 25Zm13.772 35h-4.764l-1.5-3h7.764ZM36 55h-8v-4h8Zm0-6h-8v-4h8Zm0-6h-8v-4h8Zm0-6h-8v-4h8Zm-11.171-6A1.83 1.83 0 0 1 23 29.171V27h18v2.171A1.83 1.83 0 0 1 39.171 31Z"></path></g></svg>