<svg xmlns="http://www.w3.org/2000/svg" enable-background="new 0 0 267.568 503.998" viewBox="0 0 267.568 503.998" id="dental"><path d="M219.795,213.311c2.009,0,3.706-1.49,3.967-3.482c2.705-20.735,12.801-43.259,22.564-65.042
	c10.924-24.371,21.242-47.391,21.242-67.256c0-38.018-28.559-74.132-61.115-77.283c-17.521-1.695-31.708,5.611-44.228,12.058
	c-9.739,5.015-18.939,9.752-28.441,9.752s-18.702-4.737-28.441-9.752C92.824,5.86,78.635-1.443,61.115,0.248
	C28.559,3.399,0,39.513,0,77.531c0,19.865,10.318,42.885,21.242,67.256c9.764,21.782,19.859,44.306,22.564,65.042
	c0.261,1.992,1.958,3.482,3.967,3.482h26.846v31.749l-15.766,10.994c-5.472,3.815-7.715,10.394-5.715,16.758
	s7.603,10.477,14.273,10.477h17.447l13.445,49.088H74.205c-8.19,0-14.854,6.664-14.854,14.854v28.103
	c0,8.19,6.664,14.854,14.854,14.854h4.691c0.086,6.381,0.355,12.702,0.85,18.941H63.351c-2.209,0-4,1.791-4,4s1.791,4,4,4h17.147
	c0.86,7.917,2.068,15.707,3.596,23.372H73.425c-2.209,0-4,1.791-4,4s1.791,4,4,4h12.403c1.848,7.941,4.067,15.733,6.644,23.371
	h-9.628c-2.209,0-4,1.791-4,4s1.791,4,4,4h12.477c2.806,7.455,5.949,14.762,9.465,21.896c0.674,1.366,2.064,2.231,3.588,2.231h50.82
	c1.523,0,2.914-0.865,3.588-2.231c3.516-7.133,6.659-14.44,9.465-21.896h12.477c2.209,0,4-1.791,4-4s-1.791-4-4-4h-9.628
	c2.578-7.638,4.796-15.43,6.644-23.371h12.403c2.209,0,4-1.791,4-4s-1.791-4-4-4h-10.669c1.529-7.665,2.736-15.455,3.596-23.372
	h17.147c2.209,0,4-1.791,4-4s-1.791-4-4-4h-16.396c0.496-6.24,0.764-12.56,0.85-18.941h4.691c8.19,0,14.854-6.663,14.854-14.854
	V347.23c0-8.19-6.664-14.854-14.854-14.854h-24.099l13.445-49.088h17.447c6.671,0,12.273-4.112,14.273-10.477
	s-0.243-12.942-5.715-16.758l-15.766-10.994v-31.749H219.795z M8,77.531c0-33.55,25.685-66.59,53.887-69.32
	c15.166-1.47,27.691,4.975,39.794,11.207c0.238,0.123,0.475,0.244,0.713,0.367c1.504,5.183,6.805,19.285,21.134,25.101
	c5.593,2.271,11.696,3.033,17.379,3.033c11.291,0,20.912-3.014,21.509-3.205c2.104-0.672,3.262-2.92,2.592-5.024
	s-2.916-3.265-5.024-2.597c-0.192,0.061-19.454,6.062-33.445,0.381c-6.56-2.663-10.724-7.818-13.268-12.384
	c6.613,2.901,13.284,4.969,20.515,4.969c11.44,0,21.478-5.168,32.104-10.64c12.103-6.231,24.623-12.678,39.794-11.207
	c28.202,2.729,53.887,35.77,53.887,69.32c0,18.154-9.979,40.416-20.542,63.984c-3.881,8.657-7.806,17.429-11.331,26.202H39.873
	c-3.526-8.773-7.451-17.545-11.331-26.202C17.979,117.947,8,95.685,8,77.531z M42.962,175.717h181.645
	c-3.679,9.962-6.663,19.882-8.263,29.594H51.225C49.625,195.599,46.641,185.679,42.962,175.717z M156.692,495.998h-45.816
	c-2.534-5.28-4.846-10.664-6.982-16.127h59.78C161.538,485.334,159.226,490.718,156.692,495.998z M166.645,471.871h-65.722
	c-2.671-7.628-4.961-15.422-6.874-23.371h79.47C171.606,456.449,169.316,464.243,166.645,471.871z M175.301,440.5H92.268
	c-1.578-7.657-2.818-15.449-3.705-23.372h90.444C178.119,425.051,176.879,432.843,175.301,440.5z M179.788,409.128H87.781
	c-0.51-6.238-0.797-12.556-0.886-18.941h93.779C180.585,396.572,180.298,402.89,179.788,409.128z M200.218,347.23v28.103
	c0,3.779-3.075,6.854-6.854,6.854H74.205c-3.779,0-6.854-3.074-6.854-6.854V347.23c0-3.779,3.075-6.854,6.854-6.854h119.158
	C197.143,340.376,200.218,343.451,200.218,347.23z M160.97,332.376h-54.372l-13.445-49.088h81.263L160.97,332.376z M184.949,243.147
	h-35.563c-2.209,0-4,1.791-4,4s1.791,4,4,4h38.305l16.447,11.469c3.09,2.154,3.399,5.44,2.659,7.797s-2.874,4.875-6.642,4.875
	H67.412c-3.768,0-5.901-2.519-6.642-4.875s-0.431-5.643,2.659-7.797l16.447-11.469h20.176c2.209,0,4-1.791,4-4s-1.791-4-4-4H82.619
	v-29.836h102.33V243.147z"></path></svg>