<svg xmlns="http://www.w3.org/2000/svg" width="100" height="100" id="dental-check-up-schedule"><path d="M83.494 37.871c-.898-.383-1.708-.569-2.475-.569-1.35 0-2.3.582-3.063 1.048-.686.419-1.229.752-2.101.797-.871-.045-1.415-.378-2.101-.797-.764-.467-1.714-1.048-3.063-1.048-.767 0-1.576.186-2.475.569-1.192.508-2.091 1.452-2.599 2.731-1.294 3.255-.214 8.884 3.21 16.729.661 1.514 2.021 2.492 3.466 2.492.968 0 1.812-.448 2.316-1.23.662-1.027.749-2.433.842-3.921.045-.739.135-2.185.415-2.704.256.521.346 1.966.392 2.705.092 1.488.179 2.894.842 3.921.505.781 1.349 1.229 2.316 1.229 1.444 0 2.805-.979 3.465-2.492 2.354-5.391 4.823-12.67 3.211-16.729-.507-1.279-1.405-2.224-2.598-2.731zm-4.077 20.453-.002-1.5h.002v1.5zm.715-2.192c-.173.397-.426.592-.592.662-.175-.492-.239-1.525-.287-2.306-.134-2.152-.335-5.404-3.268-5.659a1.414 1.414 0 0 0-.26 0c-2.934.255-3.135 3.507-3.269 5.659-.048.781-.112 1.814-.287 2.306-.166-.07-.419-.265-.592-.662-4.206-9.637-3.619-13.296-3.172-14.422.215-.541.528-.884.986-1.079.512-.218.949-.329 1.299-.329.482 0 .846.208 1.498.607.812.497 1.923 1.176 3.61 1.239h.111c1.688-.062 2.799-.742 3.61-1.239.652-.399 1.016-.607 1.498-.607.35 0 .787.111 1.299.329.458.195.771.539.986 1.08.451 1.126 1.038 4.788-3.17 14.421z"></path><path d="M92.26 16.359h-7.537v-4.707c0-2.475-2.014-4.488-4.488-4.488s-4.488 2.014-4.488 4.488v4.707H64.508v-4.707c0-2.475-2.014-4.488-4.488-4.488s-4.488 2.014-4.488 4.488v4.707H44.469v-4.707c0-2.475-2.014-4.488-4.488-4.488s-4.488 2.014-4.488 4.488v4.707H24.254v-4.707c0-2.475-2.014-4.488-4.488-4.488s-4.488 2.014-4.488 4.488v4.707H7.74c-2.338 0-4.24 1.915-4.24 4.269v67.938c0 2.354 1.902 4.269 4.24 4.269h84.52c2.338 0 4.24-1.915 4.24-4.269V20.628c0-2.354-1.902-4.269-4.24-4.269zm-13.514-4.707c0-.821.668-1.488 1.488-1.488s1.488.667 1.488 1.488v12.414c0 .821-.668 1.488-1.488 1.488s-1.488-.667-1.488-1.488V11.652zm-20.215 0c0-.821.668-1.488 1.488-1.488s1.488.667 1.488 1.488v12.414c0 .821-.668 1.488-1.488 1.488s-1.488-.667-1.488-1.488V11.652zm-20.039 0c0-.821.668-1.488 1.488-1.488s1.488.667 1.488 1.488v12.414c0 .821-.668 1.488-1.488 1.488s-1.488-.667-1.488-1.488V11.652zm-20.215 0c0-.821.668-1.488 1.488-1.488s1.488.667 1.488 1.488v12.414c0 .821-.668 1.488-1.488 1.488s-1.488-.667-1.488-1.488V11.652zM93.5 88.567c0 .7-.557 1.269-1.24 1.269H7.74c-.684 0-1.24-.569-1.24-1.269V20.628c0-.7.557-1.269 1.24-1.269h7.537v4.707c0 2.475 2.014 4.488 4.488 4.488s4.488-2.014 4.488-4.488v-4.707h11.238v4.707c0 2.475 2.014 4.488 4.488 4.488s4.488-2.014 4.488-4.488v-4.707h11.062v4.707c0 2.475 2.014 4.488 4.488 4.488s4.488-2.014 4.488-4.488v-4.707h11.238v4.707c0 2.475 2.014 4.488 4.488 4.488s4.488-2.014 4.488-4.488v-4.707h7.537c.684 0 1.24.569 1.24 1.269v67.939z"></path><path d="M40.263 37.479h-6.541a1.5 1.5 0 0 0-1.5 1.5v6.541a1.5 1.5 0 0 0 1.5 1.5h6.541a1.5 1.5 0 0 0 1.5-1.5v-6.541a1.5 1.5 0 0 0-1.5-1.5zm-1.5 6.542h-3.541V40.48h3.541v3.541zm18.726-6.542h-6.541a1.5 1.5 0 0 0-1.5 1.5v6.541a1.5 1.5 0 0 0 1.5 1.5h6.541a1.5 1.5 0 0 0 1.5-1.5v-6.541a1.5 1.5 0 0 0-1.5-1.5zm-1.5 6.542h-3.541V40.48h3.541v3.541zM23.036 54.932h-6.541a1.5 1.5 0 0 0-1.5 1.5v6.541a1.5 1.5 0 0 0 1.5 1.5h6.541a1.5 1.5 0 0 0 1.5-1.5v-6.541a1.5 1.5 0 0 0-1.5-1.5zm-1.5 6.541h-3.541v-3.541h3.541v3.541zm18.727-6.541h-6.541a1.5 1.5 0 0 0-1.5 1.5v6.541a1.5 1.5 0 0 0 1.5 1.5h6.541a1.5 1.5 0 0 0 1.5-1.5v-6.541a1.5 1.5 0 0 0-1.5-1.5zm-1.5 6.541h-3.541v-3.541h3.541v3.541zm18.726-6.541h-6.541a1.5 1.5 0 0 0-1.5 1.5v6.541a1.5 1.5 0 0 0 1.5 1.5h6.541a1.5 1.5 0 0 0 1.5-1.5v-6.541a1.5 1.5 0 0 0-1.5-1.5zm-1.5 6.541h-3.541v-3.541h3.541v3.541zm-32.953 10.91h-6.541a1.5 1.5 0 0 0-1.5 1.5v6.541a1.5 1.5 0 0 0 1.5 1.5h6.541a1.5 1.5 0 0 0 1.5-1.5v-6.541a1.5 1.5 0 0 0-1.5-1.5zm-1.5 6.541h-3.541v-3.541h3.541v3.541zm18.727-6.541h-6.541a1.5 1.5 0 0 0-1.5 1.5v6.541a1.5 1.5 0 0 0 1.5 1.5h6.541a1.5 1.5 0 0 0 1.5-1.5v-6.541a1.5 1.5 0 0 0-1.5-1.5zm-1.5 6.541h-3.541v-3.541h3.541v3.541zm18.726-6.541h-6.541a1.5 1.5 0 0 0-1.5 1.5v6.541a1.5 1.5 0 0 0 1.5 1.5h6.541a1.5 1.5 0 0 0 1.5-1.5v-6.541a1.5 1.5 0 0 0-1.5-1.5zm-1.5 6.541h-3.541v-3.541h3.541v3.541z"></path></svg>