<?xml version="1.0" encoding="utf-8"?>
<!-- Generator: Adobe Illustrator 26.0.1, SVG Export Plug-In . SVG Version: 6.00 Build 0)  -->
<svg version="1.1" id="Layer_1" xmlns="http://www.w3.org/2000/svg" xmlns:xlink="http://www.w3.org/1999/xlink" x="0px" y="0px"
	 viewBox="0 0 307.9 77" style="enable-background:new 0 0 307.9 77;" xml:space="preserve">
<path d="M118.1,21.5V77h-13.5V54.2h-21V77H70V21.5h13.5v21.7h21V21.5H118.1z"/>
<path d="M131.5,28.3c-2.4,0-4.3-0.7-5.8-2.1s-2.2-3.2-2.2-5.2c0-2.1,0.7-3.8,2.2-5.2s3.5-2.1,5.8-2.1s4.2,0.7,5.7,2.1
	s2.3,3.1,2.3,5.2s-0.8,3.8-2.3,5.2C135.7,27.6,133.8,28.3,131.5,28.3z M138.2,32.9V77h-13.5V32.9H138.2z"/>
<path d="M169.4,65.5V77h-6.9c-4.9,0-8.7-1.2-11.5-3.6c-2.7-2.4-4.1-6.4-4.1-11.8V44.1h-5.4V32.9h5.4V22.1h13.5v10.8h8.9v11.2h-8.9
	v17.7c0,1.3,0.3,2.3,0.9,2.8c0.6,0.6,1.7,0.9,3.2,0.9C164.5,65.5,169.4,65.5,169.4,65.5z"/>
<path d="M215.4,54.2c0,1.3-0.1,2.6-0.2,4h-30.6c0.2,2.7,1.1,4.8,2.6,6.3c1.6,1.4,3.5,2.1,5.8,2.1c3.4,0,5.7-1.4,7-4.3h14.4
	c-0.7,2.9-2.1,5.5-4,7.8c-1.9,2.3-4.3,4.1-7.2,5.5c-2.9,1.3-6.1,2-9.7,2c-4.3,0-8.2-0.9-11.5-2.8c-3.4-1.8-6-4.5-7.9-7.9
	s-2.8-7.4-2.8-12s0.9-8.6,2.8-12c1.9-3.4,4.5-6.1,7.9-7.9c3.4-1.8,7.2-2.8,11.6-2.8c4.3,0,8.1,0.9,11.4,2.7c3.3,1.8,5.9,4.3,7.7,7.7
	C214.4,45.9,215.4,49.8,215.4,54.2z M201.5,50.7c0-2.3-0.8-4.2-2.4-5.5c-1.6-1.4-3.6-2.1-5.9-2.1c-2.3,0-4.2,0.7-5.8,2
	c-1.5,1.3-2.5,3.2-2.8,5.6H201.5z"/>
<path d="M216.6,54.9c0-4.6,0.9-8.6,2.8-12c1.9-3.4,4.5-6.1,7.8-7.9c3.4-1.8,7.2-2.8,11.5-2.8c5.5,0,10.1,1.4,13.8,4.3
	c3.7,2.9,6.2,7,7.4,12.3h-14.4c-1.2-3.4-3.6-5.1-7-5.1c-2.5,0-4.5,1-5.9,2.9c-1.5,1.9-2.2,4.6-2.2,8.2s0.7,6.4,2.2,8.3
	s3.5,2.8,5.9,2.8c3.5,0,5.8-1.7,7-5.1H260c-1.2,5.2-3.6,9.2-7.4,12.2c-3.7,3-8.4,4.4-13.8,4.4c-4.3,0-8.2-0.9-11.5-2.8
	c-3.3-1.8-5.9-4.5-7.8-7.9C217.6,63.5,216.6,59.5,216.6,54.9z"/>
<path d="M291.2,32.4c5.1,0,9.1,1.7,12.2,5.1c3.1,3.3,4.6,7.9,4.6,13.8V77h-13.4V53c0-3-0.8-5.2-2.3-6.9c-1.5-1.6-3.6-2.5-6.2-2.5
	s-4.6,0.8-6.2,2.5c-1.5,1.6-2.3,3.9-2.3,6.9v24H264V18.5h13.5v20.3c1.4-2,3.2-3.5,5.6-4.7C285.5,33,288.2,32.4,291.2,32.4z"/>
<path d="M0,48V0h16v24.7c2.8-1.1,5.8-1.7,9-1.7c13.8,0,25,11.2,25,25v29H34V48c0-5-4-9-9-9s-9,4-9,9l0,0v29H0V48L0,48z"/>
<path d="M34,16V0h16v16H34z"/>
</svg>
