<svg xmlns="http://www.w3.org/2000/svg" viewBox="0 0 64 64" id="orthodontics"><path d="M5.16,25l6.8-.54a11.19,11.19,0,0,0,2.88,3.89l2.9,21.5a5.4,5.4,0,0,0,10.71.79L31.8,35.16a.21.21,0,0,1,.4,0l3.35,15.48A5.47,5.47,0,0,0,39,54.7a5.54,5.54,0,0,0,1.81.3,5.48,5.48,0,0,0,5.47-5.08l2.91-21.57A11.19,11.19,0,0,0,52,24.46l6.8.54L59,23l-6.31-.5A10.86,10.86,0,0,0,53,19.08,11.26,11.26,0,0,0,41.63,9h-.84a20.65,20.65,0,0,0-7.68,1.48,3,3,0,0,1-2.22,0A20.65,20.65,0,0,0,23.21,9h-.84A11.26,11.26,0,0,0,11,19.08a10.86,10.86,0,0,0,.27,3.42L5,23Zm42.43,2a1,1,0,0,0-.36.65l-3,22A3.51,3.51,0,0,1,40.78,53a3.26,3.26,0,0,1-3.28-2.78L34.15,34.75a2.2,2.2,0,0,0-4.3,0L26.5,50.22A3.26,3.26,0,0,1,23.22,53a3.52,3.52,0,0,1-3.49-3.35l-3-22a1,1,0,0,0-.36-.65,9,9,0,0,1-2.3-2.75L26,23.34V26a1,1,0,0,0,1,1H37a1,1,0,0,0,1-1V23.34l11.89.95A9,9,0,0,1,47.59,27ZM36,21.18l-.49,0-.51,0V19h1ZM31,25V23h2v2Zm4-1.89.35,0,.65.06V25H35ZM33,21c-.67,0-1.33,0-2,0V19h2Zm-4,.09-.51,0-.49,0V19h1Zm-.35,2,.35,0V25H28V23.19ZM13,19.24A9.25,9.25,0,0,1,22.37,11h.84a18.65,18.65,0,0,1,6.93,1.33,5,5,0,0,0,3.72,0A18.65,18.65,0,0,1,40.79,11h.84A9.25,9.25,0,0,1,51,19.24a8.92,8.92,0,0,1-.29,3.1L38,21.34V18a1,1,0,0,0-1-1H27a1,1,0,0,0-1,1v3.34l-12.68,1A8.92,8.92,0,0,1,13,19.24Z"></path></svg>