<svg xmlns="http://www.w3.org/2000/svg" viewBox="0 0 128.004 128" id="plaque"><circle cx="42.002" cy="73" r="2"></circle><circle cx="51.665" cy="67" r="2"></circle><circle cx="61.695" cy="67" r="2"></circle><circle cx="51.698" cy="75.968" r="2"></circle><circle cx="46.334" cy="83.332" r="2"></circle><circle cx="40.619" cy="91.047" r="2"></circle><circle cx="42.619" cy="99.798" r="2"></circle><circle cx="89.282" cy="78" r="2"></circle><circle cx="76.619" cy="71" r="2"></circle><circle cx="79.587" cy="80.968" r="2"></circle><circle cx="84.951" cy="88.332" r="2"></circle><circle cx="90.665" cy="96.047" r="2"></circle><circle cx="88.665" cy="104.798" r="2"></circle><path d="M98.80823,78.06183a94.24936,94.24936,0,0,0-3.09607-18.2796c5.90918-7.04883,8.70215-18.56641,9.8584-24.96777a23.77,23.77,0,0,0-.18359-9.92187c-1.27734-5.21973-4.16992-8.917-8.59473-10.99121-13.04687-6.11328-35.02539,4.47656-35.95508,4.92969a1.98577,1.98577,0,0,0-.26282.16278c-6.03589-2.29553-13.181-4.341-19.86481-4.02045-.01868.11676-.03729.23419-.056.35083a14.40607,14.40607,0,0,1,2.67578.7793,11.1475,11.1475,0,0,1,4.56842,3.39429,71.28337,71.28337,0,0,1,15.17279,4.81274c.51465.20313,12.70312,4.95117,19.60059-.04883a1.99987,1.99987,0,0,0-2.34766-3.23828c-3.77008,2.73193-10.95312,1.19012-14.55267.00757,6.32574-2.59985,20.64386-7.57587,29.32416-3.50757,3.32129,1.55664,5.417,4.27832,6.40723,8.32031a19.82309,19.82309,0,0,1,.13281,8.25977c-.9082,5.02539-3.66309,17.40625-9.62012,23.82617a1.999,1.999,0,0,0-.44043,1.96484c.02356.07471.57666,1.87347,1.22919,4.85645-6.92065,1.88977-14.29205-.676-22.07391-3.39355-9.95874-3.47571-21.02692-7.33472-30.5246.51678.30939-1.23376.52075-1.95844.53534-2.007a2.00026,2.00026,0,0,0-3.83008-1.15527c-.12579.41742-1.0141,3.43732-1.90753,8.04041-.25183-.376-.475-.721-.59052-.94373a94.237,94.237,0,0,1-5.23151-11.93512,12.089,12.089,0,0,1-1.68549.13043,12.57089,12.57089,0,0,1-2.59833-.29913,95.68929,95.68929,0,0,0,5.96161,13.93976,21.17328,21.17328,0,0,0,1.24512,1.96094,17.355,17.355,0,0,1,1.89374,3.23108c-.22522,1.64331-.42438,3.38611-.583,5.20563C20.21619,79.04681,18.1521,90.50146,16.3352,100.627,14.51684,110.7627,12.8,120.335,1.70141,122.02246a2.00028,2.00028,0,0,0,.60156,3.95508c13.92871-2.11816,16.0752-14.085,17.96973-24.64355,1.74609-9.73669,3.28784-18.165,12.87341-19.23163-.53625,11.70831.99091,25.6059,8.7262,36.26678a3.87576,3.87576,0,0,0,3.15625,1.63574,4.07921,4.07921,0,0,0,1.2959-.21582,3.99189,3.99189,0,0,0,2.7334-3.87793c-.19177-9.8938,1.74078-27.35345,15.61-39.938a1.97811,1.97811,0,0,0,.42126.36774c15.25879,9.58887,17.7959,28.65527,17.9502,39.166a3.97332,3.97332,0,0,0,2.916,3.792,4.01787,4.01787,0,0,0,1.0918.15234,3.926,3.926,0,0,0,3.33008-1.84473c7.19971-11.389,8.91119-24.51526,8.62738-35.49066,8.4093,1.03967,9.584,7.98474,10.71832,19.01312,1.09375,10.64063,2.334,22.70117,15.96875,24.84668a1.99984,1.99984,0,1,0,.62109-3.95117c-10.5918-1.667-11.57324-11.20605-12.61133-21.30469C112.6626,90.61456,111.47864,79.19324,98.80823,78.06183ZM87.03931,115.44922c-.16492-11.18408-2.90424-31.39008-19.2157-42.0932.6051-.45789,1.22449-.9093,1.868-1.34918a2.00036,2.00036,0,0,0-2.25781-3.30273c-20.001,13.67188-22.60449,35.49414-22.32324,47.31543-10.063-13.8678-8.5517-34.51978-6.49292-46.53229C47.288,57.419,57.55646,60.99567,69.41138,65.13379c7.93878,2.77185,16.12958,5.63208,24.16394,3.56C95.52911,79.92047,96.93628,99.76093,87.03931,115.44922Z"></path><path d="M8.053,33.83789c.34473,3.24219,2.99023,6.6709,6.69141,6.6709q.08936,0,.17871-.00293a10.65138,10.65138,0,0,0,1.82715-.25781,3.98229,3.98229,0,0,1,1.37891-.14648c.207.12988.34375,1.20313.40918,1.71875.04785.37109.0957.73828.16016,1.08984a8.64462,8.64462,0,0,0,4.4209,5.92383,9.02524,9.02524,0,0,0,4.377,1.16895,7.89351,7.89351,0,0,0,2.8916-.54,1.99754,1.99754,0,0,0,.67188-.43555c1.69531-1.668,1.9541-3.90625,2.18262-5.88184.17676-1.5332.33008-2.85742,1.05469-3.47754.66113-.56641,1.93555-.667,3.28418-.77441,2.15918-.16992,4.8457-.38281,6.25977-2.89453a7.27572,7.27572,0,0,0,.66016-4.127,7.54415,7.54415,0,0,1,.02539-1.64746,7.2427,7.2427,0,0,1,.55273-1.47559,7.86213,7.86213,0,0,0,.92188-3.47559,6.26782,6.26782,0,0,0-4.17285-5.46191,15.40015,15.40015,0,0,0-4.51465-.88184c-.27148-.02344-.543-.04785-.81348-.0752a14.03532,14.03532,0,0,1,.26367-4.5332,16.85129,16.85129,0,0,0,.22168-6.03711A7.86087,7.86087,0,0,0,32.469,2.44531a6.06031,6.06031,0,0,0-7.4707,2.44727A8.5913,8.5913,0,0,0,24.134,8.08594a10.9,10.9,0,0,1-.20508,1.251,3.122,3.122,0,0,1-.17969.5332,9.89459,9.89459,0,0,1-1.28418-.50488c-1.334-.5957-2.99414-1.335-4.64551-.49707a4.485,4.485,0,0,0-2.19824,3.333,15.81015,15.81015,0,0,0-.2793,3.25,8.97424,8.97424,0,0,1-.40137,3.168,20.28453,20.28453,0,0,1-2.78027,4.57227c-.53125.72754-1.08105,1.47949-1.58887,2.26172C8.59985,28.48828,7.77661,31.23047,8.053,33.83789ZM13.925,27.63281c.44922-.69141.94238-1.36719,1.46582-2.082a23.65392,23.65392,0,0,0,3.29-5.5127A12.56532,12.56532,0,0,0,19.342,15.5a12.32269,12.32269,0,0,1,.1875-2.44727,3.78,3.78,0,0,1,.14258-.50391,11.65174,11.65174,0,0,1,1.16406.46973c1.26953.56641,3.00781,1.3418,4.68945.52734A4.56917,4.56917,0,0,0,27.804,10.32715a14.07806,14.07806,0,0,0,.29883-1.7373,5.37967,5.37967,0,0,1,.40332-1.77441,2.04989,2.04989,0,0,1,2.45313-.666,3.89838,3.89838,0,0,1,2.10059,2.90137,13.69284,13.69284,0,0,1-.24512,4.63379,16.6225,16.6225,0,0,0-.20507,6.11719,3.78626,3.78626,0,0,0,1.12891,2.14648,3.92292,3.92292,0,0,0,2.292.87891c.30957.03223.61914.05957.93066.08691a12.02764,12.02764,0,0,1,3.36426.60449c.82129.333,1.66113,1.07031,1.67578,1.834a4.73909,4.73909,0,0,1-.56836,1.752,10.47641,10.47641,0,0,0-.83594,2.375,10.774,10.774,0,0,0-.09082,2.59473,4.26871,4.26871,0,0,1-.15137,1.96289c-.34277.61035-1.39551.73535-3.08887.86914-1.83691.14551-3.91992.30957-5.57031,1.72266-1.917,1.6416-2.19922,4.08984-2.42676,6.05762a7.92564,7.92564,0,0,1-.77051,3.19043,5.03972,5.03972,0,0,1-5.86621-3.69043c-.05078-.28027-.08789-.5752-.125-.87109-.18652-1.46191-.44141-3.46484-2.249-4.60059a4.28237,4.28237,0,0,0-2.33594-.64062,9.81351,9.81351,0,0,0-1.96875.25391,7.51347,7.51347,0,0,1-1.15039.17969l-.05176.001c-1.37207,0-2.56348-1.61816-2.71973-3.09277C11.85473,31.75781,12.47485,29.86621,13.925,27.63281Z"></path><circle cx="25.665" cy="36" r="2"></circle><circle cx="25.665" cy="20" r="2"></circle><circle cx="36.25" cy="28.585" r="2"></circle><circle cx="27.958" cy="28.585" r="2"></circle><circle cx="19.665" cy="30.25" r="2"></circle></svg>