<svg xmlns="http://www.w3.org/2000/svg" viewBox="0 0 32 32" id="teeth-whitening"><path d="M14.62891,4.1969,12.04,4.9552a.50781.50781,0,0,0-.06641.0166l-.10254.03418a3.12906,3.12906,0,0,1-1.74023.00049L7.37012,4.1969a5.79969,5.79969,0,0,0-3.363.02625A9.42522,9.42522,0,0,1,3.4873,2.49133a.49954.49954,0,0,0-.97461,0c-.57812,2.56006-.93848,2.91943-3.498,3.49756a.50042.50042,0,0,0-.38965.48779.50042.50042,0,0,0,.38965.48779,12.66812,12.66812,0,0,1,1.37183.37482,5.69145,5.69145,0,0,0-.24,4.36737L2.03613,17.297a3.15324,3.15324,0,0,1-.02051,2.03271,13.70574,13.70574,0,0,0,.88281,10.65186L3.498,31.11047a1.604,1.604,0,0,0,1.52637.89746,1.67144,1.67144,0,0,0,1.48047-.97314L9.4834,24.51721a1.66946,1.66946,0,0,1,3.03125-.00244l2.98242,6.52344a1.66905,1.66905,0,0,0,1.47852.96973l.043.00049a1.67236,1.67236,0,0,0,1.4834-.89795l.56055-1.06055a13.84931,13.84931,0,0,0,1.59766-6.44336,13.938,13.938,0,0,0-.7041-4.34424,3.14456,3.14456,0,0,1,.00781-1.96533l1.88965-5.58936A5.869,5.869,0,0,0,14.62891,4.1969ZM3,4.41955a4.54581,4.54581,0,0,0,.26953.5575c.00385.01221.002.02472.00684.03674a.45872.45872,0,0,0,.04059.0614A3.16614,3.16614,0,0,0,5.05664,6.47668,3.20885,3.20885,0,0,0,3,8.53381,3.15511,3.15511,0,0,0,1.382,6.689c-.01178-.00873-.01874-.02142-.03143-.02917a.47778.47778,0,0,0-.11768-.043c-.09857-.04559-.18091-.0979-.28955-.14014A3.20885,3.20885,0,0,0,3,4.41955Zm17.90625,6.9668L19.0166,16.97668a4.15264,4.15264,0,0,0-.01172,2.5957,12.9343,12.9343,0,0,1,.65527,4.03418,12.83794,12.83794,0,0,1-1.48242,5.97607l-.56055,1.06006a.65558.65558,0,0,1-.61621.36523.66327.66327,0,0,1-.5957-.38916l-2.98242-6.52246a2.6694,2.6694,0,0,0-4.84766.00244l-2.97852,6.5166a.67608.67608,0,0,1-1.21484.02637L3.78223,29.5133a12.73819,12.73819,0,0,1-.79785-9.93018,4.0907,4.0907,0,0,0-.001-2.60645l-1.88965-5.5918a4.71052,4.71052,0,0,1,.18341-3.59271c.6344.47736.90631,1.21191,1.23553,2.66986a.49954.49954,0,0,0,.97461,0c.57813-2.56006.93848-2.91943,3.498-3.49756a.50015.50015,0,0,0,0-.97559A5.43385,5.43385,0,0,1,4.61676,5.079a4.86709,4.86709,0,0,1,2.47308.07788l2.76172.81006a4.158,4.158,0,0,0,.60358.12354A4.41486,4.41486,0,0,0,9.42676,8.07531a.49982.49982,0,0,0,.38086.59619.50945.50945,0,0,0,.10742.01172.50068.50068,0,0,0,.48828-.39209,3.45221,3.45221,0,0,1,1.93646-2.38171l2.57135-.75305a4.86871,4.86871,0,0,1,5.99512,6.23Zm5.71094-8.33105c-2.0127-.45459-2.26758-.709-2.72266-2.72266a.51815.51815,0,0,0-.97461,0c-.45508,2.01318-.71,2.26758-2.72363,2.72266a.50015.50015,0,0,0,0,.97559C22.21,4.486,22.46484,4.74035,22.91992,6.753a.49954.49954,0,0,0,.97461,0c.45508-2.01318.71-2.26758,2.72266-2.72217a.50015.50015,0,0,0,0-.97559Zm-3.21,1.88232a2.57366,2.57366,0,0,0-1.39551-1.39453,2.573,2.573,0,0,0,1.39551-1.395,2.57122,2.57122,0,0,0,1.39453,1.395A2.57036,2.57036,0,0,0,23.40723,4.93762Z"></path></svg>