<?xml version="1.0" encoding="utf-8"?>
<!-- Generator: Adobe Illustrator 26.0.1, SVG Export Plug-In . SVG Version: 6.00 Build 0)  -->
<svg version="1.1" id="Layer_1" xmlns="http://www.w3.org/2000/svg" xmlns:xlink="http://www.w3.org/1999/xlink" x="0px" y="0px"
	 viewBox="0 0 333.3 78.4" style="enable-background:new 0 0 333.3 78.4;" xml:space="preserve">
<style type="text/css">
	.st0{fill-rule:evenodd;clip-rule:evenodd;}
</style>
<path d="M146,13.6c1.1,1.2,2.8,1.8,5.1,1.8s4-0.6,5-1.8c1.1-1.2,1.6-2.7,1.6-4.5c0-1.9-0.5-3.4-1.6-4.6s-2.7-1.8-5-1.8
	s-4,0.6-5.1,1.8s-1.6,2.7-1.6,4.6C144.4,10.8,144.9,12.4,146,13.6z"/>
<path d="M92.7,20.8L107,66.4h18.7L138,20.8h-11.2l-9.3,36h-2l-10.8-36H92.7z"/>
<path d="M184.3,67.8c-6.3,0-11.2-1.3-14.8-3.9c-3.5-2.7-5.4-6.4-5.5-11.1h10.5c0.2,1.6,1,3,2.6,4.3s4,1.9,7.4,1.9
	c2.8,0,5-0.5,6.6-1.5c1.7-1,2.5-2.4,2.5-4.1c0-1.5-0.6-2.7-1.9-3.6c-1.2-0.9-3.4-1.5-6.4-1.8l-4-0.4c-5.1-0.6-9-2-11.8-4.4
	c-2.7-2.4-4.1-5.5-4.1-9.4c0-3.1,0.8-5.8,2.4-7.9c1.6-2.1,3.7-3.7,6.5-4.8s6-1.7,9.6-1.7c5.6,0,10.1,1.2,13.6,3.7s5.3,6.1,5.5,10.8
	h-10.5c-0.1-1.6-0.9-2.9-2.4-4s-3.6-1.7-6.3-1.7c-2.5,0-4.4,0.5-5.7,1.4s-2,2.2-2,3.7c0,1.5,0.5,2.6,1.6,3.4
	c1.1,0.8,2.9,1.3,5.4,1.6l4,0.4c5.4,0.6,9.6,2,12.6,4.4c3.1,2.4,4.6,5.7,4.6,9.7c0,3-0.8,5.7-2.5,7.9c-1.6,2.2-3.9,3.9-6.9,5.1
	C191.8,67.2,188.3,67.8,184.3,67.8z"/>
<path d="M210.9,13.6c1.1,1.2,2.8,1.8,5.1,1.8s4-0.6,5-1.8c1.1-1.2,1.6-2.7,1.6-4.5c0-1.9-0.5-3.4-1.6-4.6s-2.7-1.8-5-1.8
	s-4,0.6-5.1,1.8s-1.6,2.7-1.6,4.6C209.3,10.8,209.9,12.4,210.9,13.6z"/>
<path class="st0" d="M254.6,68c-4,0-7.6-0.6-10.7-1.9c-3.1-1.3-5.7-3-7.8-5.2s-3.7-4.8-4.9-7.6c-1.1-2.8-1.6-5.7-1.6-8.7v-1.8
	c0-3.1,0.6-6.1,1.7-8.9c1.2-2.9,2.8-5.4,5-7.6s4.8-4,7.9-5.2c3.1-1.3,6.5-1.9,10.4-1.9c3.9,0,7.3,0.6,10.4,1.9
	c3.1,1.2,5.7,3,7.8,5.2c2.2,2.2,3.8,4.7,5,7.6c1.1,2.8,1.7,5.8,1.7,8.9v1.8c0,3-0.6,5.9-1.7,8.7s-2.7,5.3-4.8,7.6
	c-2.1,2.2-4.7,3.9-7.8,5.2C262.1,67.3,258.6,68,254.6,68z M254.6,58c2.9,0,5.3-0.6,7.2-1.8c2-1.3,3.4-3,4.4-5.1
	c1-2.2,1.5-4.6,1.5-7.4c0-2.8-0.5-5.3-1.6-7.4c-1-2.2-2.5-3.9-4.5-5.1c-2-1.3-4.3-1.9-7.1-1.9c-2.8,0-5.1,0.6-7.1,1.9
	c-2,1.2-3.5,2.9-4.5,5.1c-1.1,2.1-1.6,4.6-1.6,7.4c0,2.7,0.5,5.2,1.5,7.4c1.1,2.1,2.6,3.8,4.5,5.1C249.3,57.4,251.7,58,254.6,58z"/>
<path d="M295.7,28.8c-0.4,1-0.7,2.1-1,3.3V20.8h-9.2v45.6h11.7V39.6c0-3,0.9-5.3,2.6-7.1c1.8-1.8,4.1-2.7,7-2.7c2.8,0,5,0.9,6.5,2.6
	c1.6,1.7,2.4,4,2.4,6.8v27.1h11.7v-26c0-6.9-1.4-12.1-4.2-15.6c-2.8-3.5-6.9-5.3-12.3-5.3h-0.5c-3.6,0-6.7,0.8-9.1,2.4
	C298.8,23.3,296.9,25.6,295.7,28.8z"/>
<path d="M146.8,29.5v36.8h11.7V20.8h-18v8.7H146.8z"/>
<path d="M211.8,29.5v36.8h11.7V20.8h-18v8.7H211.8z"/>
<path class="st0" d="M42.2,75.8c20.2,0,36.5-16.4,36.5-36.5C78.8,19,62.4,2.7,42.2,2.7S5.7,19,5.7,39.2S22,75.8,42.2,75.8z
	 M69.1,35.4c-3.4,4-8.2,6.5-13.5,6.5c-10.3,0-18.7-9.4-18.7-20.9c0-2.9,0.5-5.7,1.5-8.2c-13,2-22.9,13.2-22.9,26.7
	c0,3.9,0.8,7.7,2.4,11.1c1.5-1.4,3.7-2.3,6.1-2.3c4.7,0,8.5,3.4,8.5,7.6c0,2.8-1.7,5.3-4.2,6.6c4.1,2.6,9,4.1,14.3,4.1
	c14.9,0,27-12.1,27-27C69.4,38,69.3,36.7,69.1,35.4z"/>
</svg>
